<?xml version="1.0" encoding="UTF-8"?>
<svg id="_图层_1" data-name="图层 1" xmlns="http://www.w3.org/2000/svg" version="1.1" viewBox="0 0 600 600">
  <defs>
    <style>
      .cls-1 {
        fill: #ffaa1f;
      }

      .cls-1, .cls-2, .cls-3, .cls-4, .cls-5, .cls-6 {
        stroke-width: 0px;
      }

      .cls-2, .cls-3 {
        fill: #34a8e0;
      }

      .cls-2, .cls-7 {
        display: none;
      }

      .cls-4 {
        fill: #6768ff;
      }

      .cls-5 {
        fill: #595757;
      }

      .cls-6 {
        fill: #52ac4b;
      }
    </style>
  </defs>
  <g class="cls-7">
    <path class="cls-5" d="M145.9,550h-75.39c0-2.59,0-5.17,0-7.76.66-8.42,1.38-16.84,1.96-25.27.94-13.44,1.76-26.9,2.68-40.34.93-13.63,1.93-27.25,2.88-40.88.89-12.71,1.73-25.42,2.64-38.12.93-12.89,1.96-25.77,2.87-38.66.91-12.89,1.67-25.79,2.6-38.68,1.3-18.04,2.74-36.08,4.02-54.12,1.3-18.41,2.44-36.84,3.69-55.26,1.37-20.26,2.87-40.51,4.11-60.78.23-3.7,1.43-6.4,4.56-8.24,4.61-2.71,9.1-5.67,13.89-8.02,31.85-15.69,64.86-28.36,99.2-37.47,1.75-.46,3.47-1.03,5.76-1.72v-32.14c13.52-5.13,26.86-8.58,40.58-10.55,5.64-.81,11.33-1.34,16.99-2,9.98,0,19.96,0,29.93,0,1.44.26,2.87.69,4.32.75,14.97.59,29.78,2.51,44.39,5.74,6.97,1.54,13.82,3.63,21.25,5.61v34.24c5.16,1.04,9.7,1.78,14.15,2.89,21.9,5.5,42.81,13.79,63.36,22.97,11.6,5.19,22.87,11.16,34.12,17.09,3.48,1.84,6.43,4.71,9.09,6.71,1,14.13,1.89,27.21,2.85,40.27.95,12.88,1.97,25.76,2.95,38.64.87,11.41,1.71,22.82,2.58,34.23.97,12.7,1.99,25.39,2.96,38.09.89,11.59,1.72,23.19,2.6,34.79,1.33,17.48,2.71,34.96,4.02,52.45.89,11.78,1.65,23.57,2.54,35.35,1.32,17.48,2.77,34.96,4.04,52.45,1.29,17.67,2.39,35.36,3.66,53.03.43,6.03,1.15,12.04,1.73,18.06v6.65h-72.06c-4-1.51-4.51-4.86-4.65-8.54-1.06-27.68-1.88-55.38-3.37-83.04-1.08-20.08-2.58-40.17-4.78-60.15-2.3-20.89-5.53-41.68-8.65-62.46-.75-4.98-.72-10.39-4.53-14.85-2.41-.22-4.92-.45-8.07-.74,0,2.51,0,4.49,0,6.47-.04,22.91-.06,45.82-.12,68.73-.01,4.96-.35,9.88-2.09,15.04-16.12,3.4-32.12,6.77-47.89,10.1v15.42c16.59-3.22,32.35-6.27,48.02-9.31,2.15,7.67,2.99,55.76,1.17,63.82-35.19,19.84-73.44,30.47-114.53,33.2V84.03c3.46-.36,6.59-.54,9.66-1.04,8.35-1.36,16.71-2.72,25.01-4.37,2.62-.52,5.41-1.51,6.43-5.66-1.65-1.14-3.35-2.96-5.42-3.61-3.83-1.2-7.86-2.26-11.85-2.41-16.05-.59-32.11-1.12-48.17-1.05-8.46.04-16.94,1.11-25.35,2.18-4.11.52-8.37,1.6-10.77,5.64.74,3.22,3.37,4.14,5.78,4.74,5.53,1.38,11.12,2.65,16.75,3.43,7.27,1.01,14.61,1.49,21.76,2.19,1.28,6.98.95,435.19-.29,439.26-41.42-2.08-79.76-14.93-116.41-33.29-2.12-14.12-.77-57.24,2.17-63.34,15.49,3.02,31.12,6.07,47.56,9.28v-15.46c-5.02-1.06-10.38-2.22-15.75-3.31-7.59-1.55-15.21-2.93-22.77-4.59-6.18-1.36-10.24-4.92-10.82-11.61-.32-3.67-.89-7.34-.91-11.01-.09-21.06-.05-42.12-.05-63.19,0-1.97,0-3.94,0-6.47-3.1.19-5.38.32-8.08.49-.9,2.94-2.06,5.49-2.45,8.15-3.41,23.35-7.11,46.67-9.87,70.1-2.25,19.05-3.66,38.22-4.84,57.37-1.39,22.66-2.23,45.36-3.13,68.05-.34,8.49-.18,16.99-.24,25.49Z"/>
  </g>
  <g class="cls-7">
    <path class="cls-4" d="M165,448.57c-21.65.27-42.85.93-63.14-10.67-60.73-34.7-74.77-129.52-6.05-171.6,22.59-13.83,33.67-31.69,42.63-54.64,23.85-61.06,67.94-98.39,133.71-108.29,76.08-11.45,134.89,16.14,177.23,79.5,8.89,13.31,19.46,23.75,33.69,31.01,44.55,22.75,65.83,61.69,66.9,109.35,1.12,50.19-27.2,92.52-75.69,115.86-11.7,5.63-24.98,8.37-37.81,11.16-15.89,3.46-33.18-6.84-36.83-20.71-3.48-13.24,6.39-27.44,23.6-31.72,20.54-5.11,39.39-11.98,55.71-26.85,25.27-23.02,26.65-84.45-17.55-107.48-2.75-1.43-5.52-3.39-8.46-3.79-26.93-3.65-37.69-23.93-48.25-45.24-18.99-38.29-51.51-56.94-93.17-58.97-16.74-.81-34.59.11-50.4,5.1-46.6,14.71-74.55,48.85-79.81,96.27-3.16,28.5-14.86,40.83-40.69,47.5-24.23,6.26-34.51,21.12-35.28,43.13-.77,22.12,11.77,40.29,34.41,45.93,12.56,3.13,26.05,2.68,39.14,3.51,7.73.49,15.59-.32,23.24.63,13.78,1.7,23.58,11.99,24.12,24.14.58,12.94-9.6,25.2-24.06,26.61-12.29,1.19-24.79.25-37.2.25Z"/>
    <path class="cls-4" d="M278.76,405.37c-2.78-9.98,1.77-20.56,10.91-25.43,7.46-3.98,15.26-8.21,22.81-12.83,10.88-6.67,13.42-15.59,8.85-25.7-4.73-10.47-15.87-15.83-26.95-12.32-4.35,1.38-8.42,3.93-12.27,6.47-3.86,2.55-7.18,5.91-10.94,8.64-8.2,5.94-16.71,7.36-26.06,2.15-9.47-5.27-12.39-14.42-11.86-23.59.42-7.25,3.64-15.25,7.97-21.2,17.24-23.67,53.92-34.65,81.2-25.36,34.41,11.73,51.67,36.68,53.7,70.53,2.19,36.43-27.48,70.09-58.6,76.67-21.47,4.54-33.8-.21-38.76-18.03Z"/>
    <path class="cls-4" d="M300.93,448.22c13.68.13,26.58,11.16,27.11,23.17.61,13.96-13.73,28.12-28.11,27.76-13.99-.35-25.96-13.26-25.34-27.34.58-13.07,12.48-23.73,26.34-23.59Z"/>
  </g>
  <g class="cls-7">
    <path class="cls-3" d="M418.33,246.82c0,13.97-.02,27.94.01,41.9,0,2.64-.36,5.26-1.1,7.73-1.69,5.65-5.14,10.07-10.26,13.12-2.91,1.73-6.08,2.58-9.42,3.03-2.25.3-4.49.27-6.74.27-26.89.01-53.77,0-80.66.01-2.63,0-5.26-.33-7.73-1.08-5.64-1.71-10.06-5.15-13.12-10.27-1.66-2.77-2.48-5.79-2.99-8.95-.3-1.88-.31-3.75-.31-5.64,0-27.41,0-54.82-.02-82.23,0-2.64.36-5.26,1.1-7.73,1.69-5.65,5.15-10.07,10.26-13.13,2.77-1.66,5.79-2.48,8.95-2.99,1.88-.3,3.75-.31,5.64-.31,27.41,0,54.82,0,82.23-.02,2.64,0,5.26.36,7.73,1.1,5.65,1.69,10.06,5.15,13.13,10.26,1.66,2.77,2.48,5.79,2.99,8.95.3,1.88.31,3.75.31,5.64,0,13.44,0,26.89,0,40.33ZM317.97,228.56c.19,1.13.46,1.96.44,2.78-.08,2.19-.12,4.4-.48,6.55-.4,2.38-.51,4.73-.47,7.12.04,2.33.55,4.53,1.22,6.74.99,3.22,2.56,6.09,4.54,8.83,2.31,3.2,5.16,5.8,8.3,8.06,3.6,2.6,7.47,4.8,11.59,6.52,2.71,1.13,5.31,2.48,7.69,4.19,3.14,2.25,6.25,4.56,9.28,6.96,2.25,1.78,4.47,3.63,6.52,5.64,3.6,3.52,7.32,6.92,10.4,10.93.48.63,1.08.8,1.91.16-.03-.31.03-.74-.11-1.09-1.17-2.78-2.34-5.57-3.58-8.32-1.28-2.85-2.63-5.68-3.97-8.51-.87-1.83-1.81-3.63-2.67-5.47-1.23-2.65-2.41-5.33-3.62-7.98-.98-2.13-1.98-4.25-3.02-6.48.92-.38,1.74-.8,2.61-1.06,2.24-.66,4.5-1.26,6.76-1.87.5-.14,1.02-.21,1.53-.33,1.36-.33,2.71-.69,4.08-1,1.68-.38,3.37-.69,5.04-1.07,2.02-.46,4.02-1.06,6.06-1.4,2.87-.49,5.77-.81,8.59-1.57.25-.07.52-.02.78-.06.67-.08,1.34-.17,2.01-.28,1.39-.22,2.78-.62,4.17-.63,1.51-.02,2.86-.48,4.23-.81.42-.91-.09-1.37-.7-1.73-1.31-.77-2.59-1.61-3.97-2.22-3-1.34-6.04-2.61-9.1-3.82-1.83-.72-3.72-1.31-5.61-1.88-1.79-.54-3.6-1-5.42-1.44-1.26-.31-2.53-.54-3.81-.78-1.09-.2-2.19-.36-3.35-.55.71-1.27,1.31-2.43,2-3.53,1.69-2.71,3.4-5.4,5.15-8.07,1.52-2.31,3.11-4.59,4.68-6.87.92-1.33,1.87-2.65,2.82-3.96.36-.49.68-.95.09-1.63-.84.1-1.74.21-2.89.35,1.36-2.5,2.46-4.81,3.82-6.97,3.1-4.91,6.32-9.74,9.48-14.6.23-.35.43-.72.6-1.1.06-.13,0-.3,0-.45-.12-.13-.21-.26-.33-.36-.08-.06-.19-.09-.56-.24-21.86,6.85-42.09,17.23-60.13,31.82-.25-.29-.43-.48-.59-.69-1.46-1.84-2.88-3.72-4.39-5.52-1.47-1.74-3.4-2.93-5.27-4.18-2.5-1.67-5.21-2.58-8.24-2.47-.42.02-.84,0-1.26,0-.94,0-1.84.11-2.76.45-1.42.53-2.92.79-4.45.3-1.93-.63-3.88-1.22-5.82-1.82-3.13-.98-6.26-1.96-9.39-2.94-1.04-.32-2.09-.65-3.15-.92-.32-.08-.75-.05-1.04.1-.2.11-.26.5-.43.86.59.3,1.1.57,1.61.81,1.74.83,3.51,1.62,5.22,2.51,2.5,1.3,4.98,2.65,7.44,4.02,2.2,1.24,4.19,2.78,5.85,4.69,1.61,1.85,3.21,3.73,3.99,6.12.03.1.09.19.07.13Z"/>
  </g>
  <g class="cls-7">
    <path class="cls-6" d="M550,281.1c-3.23,2.76-6.67,5.33-9.67,8.32-33.91,33.8-67.75,67.67-101.59,101.54-1.58,1.58-2.94,3.39-4.62,5.36,5.22,7.53,12.64,12.47,17.7,19.23-2.09,3.94-125.25,127.88-132.61,133.52-8.14-6.89-15.33-14.95-23.01-22.47-7.76-7.6-15.37-15.34-23.05-23.02-7.55-7.55-15.12-15.09-22.67-22.64-7.68-7.67-15.35-15.36-23.03-23.03-7.64-7.64-15.29-15.28-23.48-23.47-7.06,6.96-13.68,13.5-20.68,20.4-44.71-44.96-88.81-89.32-133.3-134.07,1.67-1.84,3.01-3.43,4.47-4.9,35.23-35.25,70.48-70.47,105.71-105.72,1.6-1.6,3.04-3.36,5.05-5.61-6.78-6.95-13.29-13.62-19.26-19.74,44.7-44.71,89.04-89.06,133.88-133.91,37.98,38.01,76.51,76.58,115.56,115.65,7.17-6.3,13.01-12.95,19.23-18.86,3.5-.1,4.89,2.52,6.7,4.32,40.8,40.75,81.55,81.55,122.34,122.32,2,2,4.21,3.79,6.32,5.68v1.07ZM243.94,207.59c-.53.2-1.06.41-1.59.61v6.17c0,49.47,0,98.93,0,148.4,0,8.72-.03,17.44.02,26.16.01,1.6.38,3.2.62,5.07,20.1-9.84,158.65-90.42,161.81-94.37-53.69-30.72-107.28-61.38-160.86-92.04Z"/>
  </g>
  <path class="cls-2" d="M161.84,208.89c.12.23-.15-.16-.29-.59-3.41-10.51-10.41-18.73-17.46-26.83-7.28-8.36-15.98-15.12-25.64-20.53-10.77-6.04-21.62-11.94-32.57-17.63-7.49-3.89-15.23-7.32-22.85-10.97-2.24-1.08-4.45-2.24-7.05-3.55.74-1.6.99-3.31,1.89-3.77,1.27-.66,3.12-.81,4.54-.45,4.64,1.16,9.22,2.61,13.8,4.03,13.72,4.27,27.42,8.57,41.13,12.86,8.5,2.66,17.02,5.24,25.49,7.99,6.71,2.18,13.3,1.02,19.51-1.29,4.04-1.5,7.94-2,12.08-1.99,1.84,0,3.68.05,5.52-.02,13.26-.49,25.16,3.5,36.1,10.83,8.2,5.49,16.68,10.68,23.1,18.32,6.63,7.88,12.84,16.11,19.24,24.18.71.89,1.48,1.73,2.58,3.01,79.03-63.91,167.63-109.38,263.39-139.37,1.62.69,2.1.79,2.44,1.07.51.44.92,1,1.44,1.58,0,.66.22,1.44-.04,1.99-.77,1.65-1.65,3.27-2.64,4.8-13.87,21.31-27.98,42.45-41.54,63.95-5.95,9.43-10.78,19.58-16.74,30.52,5.07-.61,9.01-1.08,12.67-1.52,2.6,2.95,1.19,4.97-.38,7.12-4.18,5.74-8.32,11.51-12.36,17.35-6.9,9.99-13.85,19.94-20.51,30.08-7.68,11.68-15.15,23.49-22.56,35.35-3.01,4.82-5.62,9.89-8.74,15.45,5.05.82,9.87,1.5,14.65,2.39,5.58,1.03,11.16,2.07,16.67,3.41,7.96,1.94,15.91,3.94,23.74,6.3,8.27,2.48,16.53,5.07,24.56,8.23,13.41,5.28,26.72,10.84,39.88,16.72,6.04,2.7,11.65,6.36,17.38,9.73,2.68,1.58,4.89,3.61,3.07,7.59-6,1.44-11.92,3.49-18.53,3.56-6.1.06-12.17,1.8-18.26,2.76-2.92.46-5.86.85-8.8,1.22-1.14.14-2.34-.04-3.43.25-12.36,3.31-25.05,4.72-37.62,6.86-8.94,1.52-17.69,4.15-26.55,6.15-7.34,1.66-14.75,3.04-22.09,4.69-5.98,1.35-11.9,2.93-17.85,4.37-2.22.54-4.49.85-6.69,1.45-9.88,2.68-19.78,5.29-29.59,8.2-3.82,1.13-7.43,2.99-11.44,4.65,4.57,9.78,8.96,19.05,13.23,28.37,5.33,11.64,10.47,23.37,15.87,34.97,3.75,8.06,7.88,15.94,11.69,23.97,5.87,12.38,11.75,24.77,17.37,37.27,5.42,12.06,10.56,24.25,15.68,36.45.63,1.51.36,3.4.48,4.77-3.65,2.8-6.26,2.02-8.36-.72-13.48-17.58-29.8-32.49-45.55-47.89-8.99-8.79-18.7-16.91-28.57-24.71-13.29-10.5-26.9-20.62-40.67-30.49-10.44-7.48-21.84-13.38-33.71-18.34-18.04-7.54-35-17.17-50.77-28.55-13.74-9.92-26.24-21.31-36.36-35.31-8.66-11.98-15.55-24.54-19.87-38.67-2.96-9.66-5.18-19.3-5.35-29.51-.18-10.5.29-20.8,2.06-31.21,1.6-9.42,1.78-19.11,2.12-28.7.13-3.57-1.08-7.2-1.91-12.16Z"/>
  <g>
    <path class="cls-1" d="M494.27,550H164.2c-8.45-3.9-10.91-10.61-10.88-19.69.25-64.77.14-129.55.14-194.32,0-70.14,0-140.29,0-210.43,0-10.76,5.63-16.93,15.75-16.94,83.16-.05,166.33-.06,249.49.01,11.26,0,21.64,3.23,29.88,11.18,13.7,13.21,26.97,26.88,40.67,40.09,10.96,10.57,15.86,23.19,15.84,38.41-.15,110.67-.15,221.34.05,332.01.02,9.07-2.42,15.78-10.87,19.69ZM370.98,366.42c29.4-43.49,16.9-93.14-15.29-119.64-32.55-26.8-80.79-26.51-112.33.72-32.97,28.47-40.93,75.61-19.01,111.81,11.42,18.85,27.44,32.04,48.37,38.79,27.79,8.95,53.84,4.35,78.73-12.3,1.36,1.76,2.4,3.46,3.77,4.83,21.13,21.2,42.31,42.35,63.48,63.51,1.38,1.38,2.75,2.8,4.3,3.96,8.31,6.22,19.76,2.38,22.73-7.6,1.97-6.61-.81-11.61-5.37-16.14-21.67-21.58-43.26-43.24-64.92-64.83-1.25-1.25-2.94-2.06-4.47-3.1ZM475.57,196.3c.49-5.14-.84-9.24-4.1-12.52-13.86-13.95-27.75-27.87-41.74-41.7-3.34-3.31-7.5-4.77-12.27-3.91v58.13h58.1Z"/>
    <path class="cls-1" d="M446.32,79.3c-2.53,0-4.46,0-6.4,0-89.66,0-179.33.02-268.99-.02-15.4,0-28.26,5.22-37.81,17.64-6.08,7.9-8.67,16.98-8.94,26.81-.12,4.23-.03,8.46-.03,12.69,0,115.86,0,231.72,0,347.58v6.18c-5.93,0-11.61.48-17.17-.13-6.53-.72-11.33-6.36-12.02-12.94-.17-1.61-.11-3.25-.11-4.88,0-134.74,0-269.48,0-404.21,0-.49,0-.98,0-1.46.09-10.78,5.82-16.55,16.64-16.56,46.05-.03,92.1-.01,138.16-.01,59.4,0,118.79,0,178.19,0,2.11,0,4.26-.09,6.33.25,6.5,1.08,11.59,6.33,12.07,12.92.37,5.15.07,10.35.07,16.12Z"/>
    <path class="cls-1" d="M299.89,373.23c-32.27-.02-58.62-26.47-58.53-58.75.09-32.26,26.59-58.56,58.87-58.41,32.07.15,58.25,26.42,58.29,58.5.04,32.28-26.35,58.68-58.62,58.65Z"/>
  </g>
</svg>