<?xml version="1.0" encoding="UTF-8"?>
<svg id="_图层_1" data-name="图层 1" xmlns="http://www.w3.org/2000/svg" viewBox="0 0 600 600">
  <defs>
    <style>
      .cls-1 {
        fill: #ffaa1f;
      }
    </style>
  </defs>
  <path class="cls-1" d="M494.27,550H164.2c-8.45-3.9-10.91-10.61-10.88-19.69,.25-64.77,.14-129.55,.14-194.32,0-70.14,0-140.29,0-210.43,0-10.76,5.63-16.93,15.75-16.94,83.16-.05,166.33-.06,249.49,.01,11.26,0,21.64,3.23,29.88,11.18,13.7,13.21,26.97,26.88,40.67,40.09,10.96,10.57,15.86,23.19,15.84,38.41-.15,110.67-.15,221.34,.05,332.01,.02,9.07-2.42,15.78-10.87,19.69Zm-123.29-183.58c29.4-43.49,16.9-93.14-15.29-119.64-32.55-26.8-80.79-26.51-112.33,.72-32.97,28.47-40.93,75.61-19.01,111.81,11.42,18.85,27.44,32.04,48.37,38.79,27.79,8.95,53.84,4.35,78.73-12.3,1.36,1.76,2.4,3.46,3.77,4.83,21.13,21.2,42.31,42.35,63.48,63.51,1.38,1.38,2.75,2.8,4.3,3.96,8.31,6.22,19.76,2.38,22.73-7.6,1.97-6.61-.81-11.61-5.37-16.14-21.67-21.58-43.26-43.24-64.92-64.83-1.25-1.25-2.94-2.06-4.47-3.1Zm104.59-170.12c.49-5.14-.84-9.24-4.1-12.52-13.86-13.95-27.75-27.87-41.74-41.7-3.34-3.31-7.5-4.77-12.27-3.91v58.13h58.1Z"/>
  <path class="cls-1" d="M446.32,79.3c-2.53,0-4.46,0-6.4,0-89.66,0-179.33,.02-268.99-.02-15.4,0-28.26,5.22-37.81,17.64-6.08,7.9-8.67,16.98-8.94,26.81-.12,4.23-.03,8.46-.03,12.69,0,115.86,0,231.72,0,347.58v6.18c-5.93,0-11.61,.48-17.17-.13-6.53-.72-11.33-6.36-12.02-12.94-.17-1.61-.11-3.25-.11-4.88,0-134.74,0-269.48,0-404.21,0-.49,0-.98,0-1.46,.09-10.78,5.82-16.55,16.64-16.56,46.05-.03,92.1-.01,138.16-.01,59.4,0,118.79,0,178.19,0,2.11,0,4.26-.09,6.33,.25,6.5,1.08,11.59,6.33,12.07,12.92,.37,5.15,.07,10.35,.07,16.12Z"/>
  <path class="cls-1" d="M299.89,373.23c-32.27-.02-58.62-26.47-58.53-58.75,.09-32.26,26.59-58.56,58.87-58.41,32.07,.15,58.25,26.42,58.29,58.5,.04,32.28-26.35,58.68-58.62,58.65Z"/>
</svg>