<?xml version="1.0" encoding="UTF-8"?>
<svg id="_图层_1" data-name="图层 1" xmlns="http://www.w3.org/2000/svg" viewBox="0 0 526.29 600">
  <defs>
    <style>
      .cls-1 {
        fill: #fff;
      }
    </style>
  </defs>
  <path class="cls-1" d="M73.2,600c-5.15,0-10.17-1.47-14.53-4.26l-.1-.06c-7.13-4.63-11.69-12.44-12.21-20.91l-7.12-114.55c-.37-5.7,1.16-11.51,4.3-16.33L323.3,12.27C328.28,4.59,336.71,0,345.87,0c5.21,0,10.27,1.5,14.64,4.35l114.35,74.08c5.95,3.84,10.22,10.04,11.68,17,1.49,6.99,.16,14.19-3.76,20.22L203.01,547.26c-3.17,4.87-7.68,8.5-13.07,10.53l-107.34,40.51c-3.04,1.13-6.2,1.7-9.41,1.7Zm24.58-64.91l64.91-24.49L423.04,108.94l-69.24-44.86L93.47,465.73l4.31,69.35Z"/>
</svg>