<?xml version="1.0" encoding="UTF-8"?>
<svg id="_图层_1" data-name="图层 1" xmlns="http://www.w3.org/2000/svg" viewBox="0 0 600 600">
  <defs>
    <style>
      .cls-1 {
        fill: #52ac4b;
      }
    </style>
  </defs>
  <path class="cls-1" d="M550,281.1c-3.23,2.76-6.67,5.33-9.67,8.32-33.91,33.8-67.75,67.67-101.59,101.54-1.58,1.58-2.94,3.39-4.62,5.36,5.22,7.53,12.64,12.47,17.7,19.23-2.09,3.94-125.25,127.88-132.61,133.52-8.14-6.89-15.33-14.95-23.01-22.47-7.76-7.6-15.37-15.34-23.05-23.02-7.55-7.55-15.12-15.09-22.67-22.64-7.68-7.67-15.35-15.36-23.03-23.03-7.64-7.64-15.29-15.28-23.48-23.47-7.06,6.96-13.68,13.5-20.68,20.4-44.71-44.96-88.81-89.32-133.3-134.07,1.67-1.84,3.01-3.43,4.47-4.9,35.23-35.25,70.48-70.47,105.71-105.72,1.6-1.6,3.04-3.36,5.05-5.61-6.78-6.95-13.29-13.62-19.26-19.74,44.7-44.71,89.04-89.06,133.88-133.91,37.98,38.01,76.51,76.58,115.56,115.65,7.17-6.3,13.01-12.95,19.23-18.86,3.5-.1,4.89,2.52,6.7,4.32,40.8,40.75,81.55,81.55,122.34,122.32,2,2,4.21,3.79,6.32,5.68v1.07ZM243.94,207.59c-.53,.2-1.06,.41-1.59,.61v6.17c0,49.47,0,98.93,0,148.4,0,8.72-.03,17.44,.02,26.16,.01,1.6,.38,3.2,.62,5.07,20.1-9.84,158.65-90.42,161.81-94.37-53.69-30.72-107.28-61.38-160.86-92.04Z"/>
</svg>