<?xml version="1.0" encoding="UTF-8"?>
<svg id="_图层_1" data-name="图层 1" xmlns="http://www.w3.org/2000/svg" viewBox="0 0 600 600">
  <defs>
    <style>
      .cls-1 {
        fill: #595757;
      }
    </style>
  </defs>
  <path class="cls-1" d="M145.9,550H70.51c0-2.59,0-5.17,0-7.76,.66-8.42,1.38-16.84,1.96-25.27,.94-13.44,1.76-26.9,2.68-40.34,.93-13.63,1.93-27.25,2.88-40.88,.89-12.71,1.73-25.42,2.64-38.12,.93-12.89,1.96-25.77,2.87-38.66,.91-12.89,1.67-25.79,2.6-38.68,1.3-18.04,2.74-36.08,4.02-54.12,1.3-18.41,2.44-36.84,3.69-55.26,1.37-20.26,2.87-40.51,4.11-60.78,.23-3.7,1.43-6.4,4.56-8.24,4.61-2.71,9.1-5.67,13.89-8.02,31.85-15.69,64.86-28.36,99.2-37.47,1.75-.46,3.47-1.03,5.76-1.72V62.55c13.52-5.13,26.86-8.58,40.58-10.55,5.64-.81,11.33-1.34,16.99-2,9.98,0,19.96,0,29.93,0,1.44,.26,2.87,.69,4.32,.75,14.97,.59,29.78,2.51,44.39,5.74,6.97,1.54,13.82,3.63,21.25,5.61v34.24c5.16,1.04,9.7,1.78,14.15,2.89,21.9,5.5,42.81,13.79,63.36,22.97,11.6,5.19,22.87,11.16,34.12,17.09,3.48,1.84,6.43,4.71,9.09,6.71,1,14.13,1.89,27.21,2.85,40.27,.95,12.88,1.97,25.76,2.95,38.64,.87,11.41,1.71,22.82,2.58,34.23,.97,12.7,1.99,25.39,2.96,38.09,.89,11.59,1.72,23.19,2.6,34.79,1.33,17.48,2.71,34.96,4.02,52.45,.89,11.78,1.65,23.57,2.54,35.35,1.32,17.48,2.77,34.96,4.04,52.45,1.29,17.67,2.39,35.36,3.66,53.03,.43,6.03,1.15,12.04,1.73,18.06v6.65h-72.06c-4-1.51-4.51-4.86-4.65-8.54-1.06-27.68-1.88-55.38-3.37-83.04-1.08-20.08-2.58-40.17-4.78-60.15-2.3-20.89-5.53-41.68-8.65-62.46-.75-4.98-.72-10.39-4.53-14.85-2.41-.22-4.92-.45-8.07-.74,0,2.51,0,4.49,0,6.47-.04,22.91-.06,45.82-.12,68.73-.01,4.96-.35,9.88-2.09,15.04-16.12,3.4-32.12,6.77-47.89,10.1v15.42c16.59-3.22,32.35-6.27,48.02-9.31,2.15,7.67,2.99,55.76,1.17,63.82-35.19,19.84-73.44,30.47-114.53,33.2V84.03c3.46-.36,6.59-.54,9.66-1.04,8.35-1.36,16.71-2.72,25.01-4.37,2.62-.52,5.41-1.51,6.43-5.66-1.65-1.14-3.35-2.96-5.42-3.61-3.83-1.2-7.86-2.26-11.85-2.41-16.05-.59-32.11-1.12-48.17-1.05-8.46,.04-16.94,1.11-25.35,2.18-4.11,.52-8.37,1.6-10.77,5.64,.74,3.22,3.37,4.14,5.78,4.74,5.53,1.38,11.12,2.65,16.75,3.43,7.27,1.01,14.61,1.49,21.76,2.19,1.28,6.98,.95,435.19-.29,439.26-41.42-2.08-79.76-14.93-116.41-33.29-2.12-14.12-.77-57.24,2.17-63.34,15.49,3.02,31.12,6.07,47.56,9.28v-15.46c-5.02-1.06-10.38-2.22-15.75-3.31-7.59-1.55-15.21-2.93-22.77-4.59-6.18-1.36-10.24-4.92-10.82-11.61-.32-3.67-.89-7.34-.91-11.01-.09-21.06-.05-42.12-.05-63.19,0-1.97,0-3.94,0-6.47-3.1,.19-5.38,.32-8.08,.49-.9,2.94-2.06,5.49-2.45,8.15-3.41,23.35-7.11,46.67-9.87,70.1-2.25,19.05-3.66,38.22-4.84,57.37-1.39,22.66-2.23,45.36-3.13,68.05-.34,8.49-.18,16.99-.24,25.49Z"/>
</svg>