<?xml version="1.0" encoding="UTF-8"?>
<svg id="_图层_1" data-name="图层 1" xmlns="http://www.w3.org/2000/svg" viewBox="0 0 600.12 600">
  <defs>
    <style>
      .cls-1 {
        fill: #515151;
      }
    </style>
  </defs>
  <path id="rec" class="cls-1" d="M23.16,315.86c0,34.91,21.07,64.15,49.55,72.49,.2,.08,.92,.16,2.12,.16H220.09c.56,0,.88,2.82,.76,3.32-21.07,67.64-10.7,131.05-10.3,133.14,.04,.04,.04,.1,.04,.14,0,41.38,29.56,74.89,66.02,74.89,33.81,0,61.57-28.74,65.58-65.84h.04c13.34-125.53,98.47-162.98,117.62-169.91,.12-.04,.24,0,.36,0,1.12,.22,2.29,0,3.49,0h89.33c13.22,0,23.92-11.98,23.92-26.94V26.01c0-15.02-10.69-25.9-23.92-25.9H141.37c-2.33-.24-4.69,0-7.05,0C90.78,.11,75.71,40.85,75.71,40.85c-4.77,10.34-49.63,253.21-49.63,253.21h-.04c-.84,3.25-1.48,6.65-1.93,10.06l-.2,1.1v.08c-.44,3.45-.76,6.99-.76,10.56M491.74,56.73c0-8.05,6.53-14.58,14.58-14.58s14.58,6.53,14.58,14.58v250.83c0,8.03-6.57,14.56-14.58,14.56s-14.58-6.53-14.58-14.56V56.73Zm0,0"/>
</svg>