<?xml version="1.0" encoding="UTF-8"?>
<svg id="_图层_1" data-name="图层 1" xmlns="http://www.w3.org/2000/svg" viewBox="0 0 600 600">
  <defs>
    <style>
      .cls-1 {
        fill: #fff;
      }
    </style>
  </defs>
  <path class="cls-1" d="M214.7,599.46c-7.85,0-15.55-3.17-21.12-8.69L8.86,407.75c-11.75-11.66-11.83-30.7-.19-42.45,5.67-5.73,13.24-8.89,21.31-8.89s15.47,3.09,21.13,8.7l158.68,157.23L544.95,14.03c5.57-8.45,14.94-13.49,25.06-13.49,5.88,0,11.59,1.72,16.51,4.97,13.8,9.11,17.63,27.76,8.54,41.57L239.76,585.97c-5.04,7.64-13.08,12.4-22.64,13.4l-.28,.03h-.28s-.94,.06-1.85,.06Z"/>
</svg>