<?xml version="1.0" encoding="UTF-8"?>
<svg id="_图层_1" data-name=" 图层 1" xmlns="http://www.w3.org/2000/svg" version="1.1" viewBox="0 0 600 600">
  <defs>
    <style>
      .cls-1 {
        fill: #fff;
        stroke-width: 0px;
      }
    </style>
  </defs>
  <path class="cls-1" d="M541,600c-6.5,0-12.7-2.8-16.9-7.8l-138-162.3c-35.6,21.2-76.3,32.4-118,32.4-127.5,0-231.2-103.7-231.2-231.2S140.6,0,268,0s231.2,103.7,231.2,231.2-8.1,70.7-24.2,102.9c-13,26.1-31.3,50-53.1,69.5l136,159.8c7.9,9.3,6.8,23.4-2.5,31.3-4,3.4-9.1,5.3-14.4,5.3h0ZM268,44.4c-103,0-186.8,83.8-186.8,186.8s83.8,186.8,186.8,186.8,186.8-83.8,186.8-186.8S371,44.4,268,44.4Z"/>
</svg>