<?xml version="1.0" encoding="UTF-8"?>
<svg id="_图层_1" data-name="图层 1" xmlns="http://www.w3.org/2000/svg" viewBox="0 0 600 600">
  <defs>
    <style>
      .cls-1 {
        fill: #fff;
      }
    </style>
  </defs>
  <path class="cls-1" d="M540.95,600c-6.51,0-12.67-2.84-16.9-7.8l-138.04-162.27c-35.64,21.24-76.29,32.43-117.98,32.43-127.47,0-231.17-103.7-231.17-231.17S140.55,0,268.02,0s231.18,103.71,231.18,231.18c0,36.1-8.13,70.7-24.16,102.85-13,26.06-31.28,49.95-53.15,69.53l135.97,159.84c7.92,9.33,6.79,23.37-2.51,31.3-4.03,3.42-9.14,5.3-14.4,5.3ZM268.02,44.42c-102.98,0-186.76,83.78-186.76,186.77s83.78,186.76,186.76,186.76,186.76-83.78,186.76-186.76S371,44.42,268.02,44.42Z"/>
  <path class="cls-1" d="M540.95,592.21c-4.23,0-8.23-1.85-10.97-5.07l-142.37-167.35c-35.78,22.77-77,34.78-119.59,34.78-123.17,0-223.38-100.21-223.38-223.38S144.85,7.79,268.02,7.79s223.39,100.21,223.39,223.39c0,34.88-7.85,68.31-23.35,99.37-13.74,27.54-33.4,52.36-57.11,72.17l140.98,165.72c5.14,6.06,4.41,15.17-1.63,20.32-2.61,2.22-5.93,3.44-9.35,3.44ZM268.02,36.62c-107.27,0-194.55,87.28-194.55,194.56s87.27,194.55,194.55,194.55,194.55-87.28,194.55-194.55S375.3,36.62,268.02,36.62Z"/>
</svg>