<?xml version="1.0" encoding="UTF-8"?>
<svg id="_图层_1" data-name="图层 1" xmlns="http://www.w3.org/2000/svg" viewBox="0 0 600.12 600">
  <defs>
    <style>
      .cls-1 {
        fill: #515151;
        stroke-width: 0px;
      }
    </style>
  </defs>
  <path class="cls-1" d="M562.91,243.19l-48.14-10.69c-3.75-11.98-8.64-23.46-14.3-34.51l26.05-43.36c9.73-15.56,14.62-38.41,0-53.06l-26.54-26.52c-7.15-7.18-16.76-10.19-26.46-10.19s-20.22,3.28-27.8,8.55l-42.22,26.89c-10.96-5.69-22.38-10.55-34.28-14.41l-10.81-48.69c-3.22-17.87-18.84-37.21-39.55-37.21h-37.5c-20.71,0-33.4,19.63-37.5,37.5l-12.04,48.11c-12.69,4.04-24.9,9.23-36.51,15.35l-43.27-27.54c-7.62-5.27-17.75-8.55-27.83-8.55s-19.28,3.02-26.46,10.19l-26.52,26.52c-14.65,14.65-9.73,37.5,0,53.05l27.39,45.64c-5.12,10.37-9.69,21.04-13.21,32.23l-48.11,10.69C19.44,246.41.1,262.03.1,282.75v37.5c0,20.71,19.63,33.4,37.5,37.5l48.72,12.16c3.37,10.34,7.56,20.27,12.34,29.88l-27.42,45.71c-9.73,15.52-14.62,38.38,0,53.03l26.54,26.52c7.15,7.18,16.76,10.22,26.46,10.22s20.22-3.28,27.8-8.55l43.36-27.66c11.69,6.18,23.96,11.43,36.74,15.47l12.01,47.99c4.1,17.87,16.79,37.5,37.5,37.5h37.5c20.71,0,36.33-19.34,39.55-37.21l10.81-48.84c11.78-3.81,23.09-8.62,33.9-14.21l42.3,26.95c7.59,5.27,17.76,8.55,27.8,8.55s19.31-3.05,26.46-10.22l26.54-26.52c14.62-14.65,9.73-37.5,0-53.03l-26.08-43.42c5.24-10.31,9.79-21.03,13.45-32.17l48.72-12.16c17.87-4.1,37.5-16.78,37.5-37.5v-37.5c0-20.71-19.34-36.33-37.21-39.55h0ZM300.64,390.7c-50.01,0-90.74-40.61-90.74-90.47s40.73-90.44,90.74-90.44,90.7,40.58,90.7,90.44-40.7,90.47-90.7,90.47h0ZM300.64,390.7"/>
</svg>