<svg xmlns="http://www.w3.org/2000/svg" style="display: none;">

    <symbol id="search-btn-icon" viewBox="0 0 600 600">
        <path d="M541,600c-6.5,0-12.7-2.8-16.9-7.8l-138-162.3c-35.6,21.2-76.3,32.4-118,32.4-127.5,0-231.2-103.7-231.2-231.2S140.6,0,268,0s231.2,103.7,231.2,231.2-8.1,70.7-24.2,102.9c-13,26.1-31.3,50-53.1,69.5l136,159.8c7.9,9.3,6.8,23.4-2.5,31.3-4,3.4-9.1,5.3-14.4,5.3h0ZM268,44.4c-103,0-186.8,83.8-186.8,186.8s83.8,186.8,186.8,186.8,186.8-83.8,186.8-186.8S371,44.4,268,44.4Z"/>
    </symbol>
  
    <symbol id="add-btn-icon" viewBox="0 0 600 600">
        <path d="M300,600c-15.12,0-27.42-12.3-27.42-27.42v-245.17H27.42c-15.12,0-27.42-12.3-27.42-27.42s12.3-27.42,27.42-27.42h245.16V27.42C272.58,12.3,284.88,0,300,0s27.42,12.3,27.42,27.42v245.16h245.18c15.12,0,27.42,12.3,27.42,27.42s-12.3,27.42-27.42,27.42h-245.18v245.17c0,15.12-12.3,27.42-27.42,27.42Z"/>
    </symbol>
  
    <symbol id="save-btn-icon" viewBox="0 0 600 600">
        <path d="M214.7,599.46c-7.85,0-15.55-3.17-21.12-8.69L8.86,407.75c-11.75-11.66-11.83-30.7-.19-42.45,5.67-5.73,13.24-8.89,21.31-8.89s15.47,3.09,21.13,8.7l158.68,157.23L544.95,14.03c5.57-8.45,14.94-13.49,25.06-13.49,5.88,0,11.59,1.72,16.51,4.97,13.8,9.11,17.63,27.76,8.54,41.57L239.76,585.97c-5.04,7.64-13.08,12.4-22.64,13.4l-.28,.03h-.28s-.94,.06-1.85,.06Z"/>
    </symbol>
  
    <symbol id="delete-btn-top-icon" viewBox="0 0 526.3 600">
        <path d="M506.8,40.1h-148V15c0-8.3-6.7-15-15-15h-161.2c-8.3,0-15,6.7-15,15v25.1H19.5c-8.3,0-15,6.7-15,15v20.4c0,8.3,6.7,15,15,15h487.2c8.3,0,15-6.7,15-15v-20.4c0-8.3-6.7-15-15-15Z"/>
    </symbol>

    <symbol id="delete-btn-bottom-icon" viewBox="0 0 526.3 600">
        <rect x="179.1" y="169.8" width="50.4" height="302.1"/>
        <rect x="298.6" y="169.8" width="50.4" height="302.1"/>
        <path d="M429.2,90.5v459.2H98V90.5h-50.4v494.5c0,8.3,6.7,15,15,15h401.9c8.3,0,15-6.7,15-15V90.5h-50.4.1Z"/>
    </symbol>

    <symbol id="edit-btn-icon" viewBox="0 0 526.29 600">
        <path d="M73.2,600c-5.15,0-10.17-1.47-14.53-4.26l-.1-.06c-7.13-4.63-11.69-12.44-12.21-20.91l-7.12-114.55c-.37-5.7,1.16-11.51,4.3-16.33L323.3,12.27C328.28,4.59,336.71,0,345.87,0c5.21,0,10.27,1.5,14.64,4.35l114.35,74.08c5.95,3.84,10.22,10.04,11.68,17,1.49,6.99,.16,14.19-3.76,20.22L203.01,547.26c-3.17,4.87-7.68,8.5-13.07,10.53l-107.34,40.51c-3.04,1.13-6.2,1.7-9.41,1.7Zm24.58-64.91l64.91-24.49L423.04,108.94l-69.24-44.86L93.47,465.73l4.31,69.35Z"/>
    </symbol>

    <symbol id="settings-btn-icon" viewBox="0 0 600.12 600">
        <path d="M562.91,243.19l-48.14-10.69c-3.75-11.98-8.64-23.46-14.3-34.51l26.05-43.36c9.73-15.56,14.62-38.41,0-53.06l-26.54-26.52c-7.15-7.18-16.76-10.19-26.46-10.19s-20.22,3.28-27.8,8.55l-42.22,26.89c-10.96-5.69-22.38-10.55-34.28-14.41l-10.81-48.69c-3.22-17.87-18.84-37.21-39.55-37.21h-37.5c-20.71,0-33.4,19.63-37.5,37.5l-12.04,48.11c-12.69,4.04-24.9,9.23-36.51,15.35l-43.27-27.54c-7.62-5.27-17.75-8.55-27.83-8.55s-19.28,3.02-26.46,10.19l-26.52,26.52c-14.65,14.65-9.73,37.5,0,53.05l27.39,45.64c-5.12,10.37-9.69,21.04-13.21,32.23l-48.11,10.69C19.44,246.41.1,262.03.1,282.75v37.5c0,20.71,19.63,33.4,37.5,37.5l48.72,12.16c3.37,10.34,7.56,20.27,12.34,29.88l-27.42,45.71c-9.73,15.52-14.62,38.38,0,53.03l26.54,26.52c7.15,7.18,16.76,10.22,26.46,10.22s20.22-3.28,27.8-8.55l43.36-27.66c11.69,6.18,23.96,11.43,36.74,15.47l12.01,47.99c4.1,17.87,16.79,37.5,37.5,37.5h37.5c20.71,0,36.33-19.34,39.55-37.21l10.81-48.84c11.78-3.81,23.09-8.62,33.9-14.21l42.3,26.95c7.59,5.27,17.76,8.55,27.8,8.55s19.31-3.05,26.46-10.22l26.54-26.52c14.62-14.65,9.73-37.5,0-53.03l-26.08-43.42c5.24-10.31,9.79-21.03,13.45-32.17l48.72-12.16c17.87-4.1,37.5-16.78,37.5-37.5v-37.5c0-20.71-19.34-36.33-37.21-39.55h0ZM300.64,390.7c-50.01,0-90.74-40.61-90.74-90.47s40.73-90.44,90.74-90.44,90.7,40.58,90.7,90.44-40.7,90.47-90.7,90.47h0ZM300.64,390.7"/>
    </symbol>

    <symbol id="recommend-icon" viewBox="0 0 600.12 600">
        <path d="M23.16,315.86c0,34.91,21.07,64.15,49.55,72.49,.2,.08,.92,.16,2.12,.16H220.09c.56,0,.88,2.82,.76,3.32-21.07,67.64-10.7,131.05-10.3,133.14,.04,.04,.04,.1,.04,.14,0,41.38,29.56,74.89,66.02,74.89,33.81,0,61.57-28.74,65.58-65.84h.04c13.34-125.53,98.47-162.98,117.62-169.91,.12-.04,.24,0,.36,0,1.12,.22,2.29,0,3.49,0h89.33c13.22,0,23.92-11.98,23.92-26.94V26.01c0-15.02-10.69-25.9-23.92-25.9H141.37c-2.33-.24-4.69,0-7.05,0C90.78,.11,75.71,40.85,75.71,40.85c-4.77,10.34-49.63,253.21-49.63,253.21h-.04c-.84,3.25-1.48,6.65-1.93,10.06l-.2,1.1v.08c-.44,3.45-.76,6.99-.76,10.56M491.74,56.73c0-8.05,6.53-14.58,14.58-14.58s14.58,6.53,14.58,14.58v250.83c0,8.03-6.57,14.56-14.58,14.56s-14.58-6.53-14.58-14.56V56.73Zm0,0"/>
    </symbol>

    <symbol id="recommend-light-icon" viewBox="0 0 600.12 600">
        <path d="M576.94,284.14c0-34.91-21.07-64.15-49.55-72.49-.2-.08-.92-.16-2.12-.16h-145.26c-.56,0-.88-2.82-.76-3.32,21.07-67.64,10.7-131.05,10.3-133.14-.04-.04-.04-.1-.04-.14,0-41.38-29.56-74.89-66.02-74.89-33.81,0-61.57,28.74-65.58,65.84h-.04c-13.34,125.53-98.47,162.98-117.62,169.91-.12,.04-.24,0-.36,0-1.12-.22-2.29,0-3.49,0H47.07c-13.22,0-23.92,11.98-23.92,26.94v311.3c0,15.02,10.69,25.9,23.92,25.9H458.72c2.33,.24,4.69,0,7.05,0,43.54,0,58.61-40.74,58.61-40.74,4.77-10.34,49.63-253.21,49.63-253.21h.04c.84-3.25,1.48-6.65,1.93-10.06l.2-1.1v-.08c.44-3.45,.76-6.99,.76-10.56M108.36,543.27c0,8.05-6.53,14.58-14.58,14.58s-14.58-6.53-14.58-14.58v-250.83c0-8.03,6.57-14.56,14.58-14.56s14.58,6.53,14.58,14.56v250.83Zm0,0"/>
    </symbol>

    <symbol id="duplicate-icon" viewBox="0 0 600 600">
        <path d="M494.27,550H164.2c-8.45-3.9-10.91-10.61-10.88-19.69,.25-64.77,.14-129.55,.14-194.32,0-70.14,0-140.29,0-210.43,0-10.76,5.63-16.93,15.75-16.94,83.16-.05,166.33-.06,249.49,.01,11.26,0,21.64,3.23,29.88,11.18,13.7,13.21,26.97,26.88,40.67,40.09,10.96,10.57,15.86,23.19,15.84,38.41-.15,110.67-.15,221.34,.05,332.01,.02,9.07-2.42,15.78-10.87,19.69Zm-123.29-183.58c29.4-43.49,16.9-93.14-15.29-119.64-32.55-26.8-80.79-26.51-112.33,.72-32.97,28.47-40.93,75.61-19.01,111.81,11.42,18.85,27.44,32.04,48.37,38.79,27.79,8.95,53.84,4.35,78.73-12.3,1.36,1.76,2.4,3.46,3.77,4.83,21.13,21.2,42.31,42.35,63.48,63.51,1.38,1.38,2.75,2.8,4.3,3.96,8.31,6.22,19.76,2.38,22.73-7.6,1.97-6.61-.81-11.61-5.37-16.14-21.67-21.58-43.26-43.24-64.92-64.83-1.25-1.25-2.94-2.06-4.47-3.1Zm104.59-170.12c.49-5.14-.84-9.24-4.1-12.52-13.86-13.95-27.75-27.87-41.74-41.7-3.34-3.31-7.5-4.77-12.27-3.91v58.13h58.1Z"/>
        <path d="M446.32,79.3c-2.53,0-4.46,0-6.4,0-89.66,0-179.33,.02-268.99-.02-15.4,0-28.26,5.22-37.81,17.64-6.08,7.9-8.67,16.98-8.94,26.81-.12,4.23-.03,8.46-.03,12.69,0,115.86,0,231.72,0,347.58v6.18c-5.93,0-11.61,.48-17.17-.13-6.53-.72-11.33-6.36-12.02-12.94-.17-1.61-.11-3.25-.11-4.88,0-134.74,0-269.48,0-404.21,0-.49,0-.98,0-1.46,.09-10.78,5.82-16.55,16.64-16.56,46.05-.03,92.1-.01,138.16-.01,59.4,0,118.79,0,178.19,0,2.11,0,4.26-.09,6.33,.25,6.5,1.08,11.59,6.33,12.07,12.92,.37,5.15,.07,10.35,.07,16.12Z"/>
        <path d="M299.89,373.23c-32.27-.02-58.62-26.47-58.53-58.75,.09-32.26,26.59-58.56,58.87-58.41,32.07,.15,58.25,26.42,58.29,58.5,.04,32.28-26.35,58.68-58.62,58.65Z"/>
    </symbol>

    <symbol id="emby-icon" viewBox="0 0 600 600">
        <path d="M550,281.1c-3.23,2.76-6.67,5.33-9.67,8.32-33.91,33.8-67.75,67.67-101.59,101.54-1.58,1.58-2.94,3.39-4.62,5.36,5.22,7.53,12.64,12.47,17.7,19.23-2.09,3.94-125.25,127.88-132.61,133.52-8.14-6.89-15.33-14.95-23.01-22.47-7.76-7.6-15.37-15.34-23.05-23.02-7.55-7.55-15.12-15.09-22.67-22.64-7.68-7.67-15.35-15.36-23.03-23.03-7.64-7.64-15.29-15.28-23.48-23.47-7.06,6.96-13.68,13.5-20.68,20.4-44.71-44.96-88.81-89.32-133.3-134.07,1.67-1.84,3.01-3.43,4.47-4.9,35.23-35.25,70.48-70.47,105.71-105.72,1.6-1.6,3.04-3.36,5.05-5.61-6.78-6.95-13.29-13.62-19.26-19.74,44.7-44.71,89.04-89.06,133.88-133.91,37.98,38.01,76.51,76.58,115.56,115.65,7.17-6.3,13.01-12.95,19.23-18.86,3.5-.1,4.89,2.52,6.7,4.32,40.8,40.75,81.55,81.55,122.34,122.32,2,2,4.21,3.79,6.32,5.68v1.07ZM243.94,207.59c-.53,.2-1.06,.41-1.59,.61v6.17c0,49.47,0,98.93,0,148.4,0,8.72-.03,17.44,.02,26.16,.01,1.6,.38,3.2,.62,5.07,20.1-9.84,158.65-90.42,161.81-94.37-53.69-30.72-107.28-61.38-160.86-92.04Z"/>
    </symbol>

    <symbol id="jackett-icon" viewBox="0 0 600 600">
        <path d="M145.9,550H70.51c0-2.59,0-5.17,0-7.76,.66-8.42,1.38-16.84,1.96-25.27,.94-13.44,1.76-26.9,2.68-40.34,.93-13.63,1.93-27.25,2.88-40.88,.89-12.71,1.73-25.42,2.64-38.12,.93-12.89,1.96-25.77,2.87-38.66,.91-12.89,1.67-25.79,2.6-38.68,1.3-18.04,2.74-36.08,4.02-54.12,1.3-18.41,2.44-36.84,3.69-55.26,1.37-20.26,2.87-40.51,4.11-60.78,.23-3.7,1.43-6.4,4.56-8.24,4.61-2.71,9.1-5.67,13.89-8.02,31.85-15.69,64.86-28.36,99.2-37.47,1.75-.46,3.47-1.03,5.76-1.72V62.55c13.52-5.13,26.86-8.58,40.58-10.55,5.64-.81,11.33-1.34,16.99-2,9.98,0,19.96,0,29.93,0,1.44,.26,2.87,.69,4.32,.75,14.97,.59,29.78,2.51,44.39,5.74,6.97,1.54,13.82,3.63,21.25,5.61v34.24c5.16,1.04,9.7,1.78,14.15,2.89,21.9,5.5,42.81,13.79,63.36,22.97,11.6,5.19,22.87,11.16,34.12,17.09,3.48,1.84,6.43,4.71,9.09,6.71,1,14.13,1.89,27.21,2.85,40.27,.95,12.88,1.97,25.76,2.95,38.64,.87,11.41,1.71,22.82,2.58,34.23,.97,12.7,1.99,25.39,2.96,38.09,.89,11.59,1.72,23.19,2.6,34.79,1.33,17.48,2.71,34.96,4.02,52.45,.89,11.78,1.65,23.57,2.54,35.35,1.32,17.48,2.77,34.96,4.04,52.45,1.29,17.67,2.39,35.36,3.66,53.03,.43,6.03,1.15,12.04,1.73,18.06v6.65h-72.06c-4-1.51-4.51-4.86-4.65-8.54-1.06-27.68-1.88-55.38-3.37-83.04-1.08-20.08-2.58-40.17-4.78-60.15-2.3-20.89-5.53-41.68-8.65-62.46-.75-4.98-.72-10.39-4.53-14.85-2.41-.22-4.92-.45-8.07-.74,0,2.51,0,4.49,0,6.47-.04,22.91-.06,45.82-.12,68.73-.01,4.96-.35,9.88-2.09,15.04-16.12,3.4-32.12,6.77-47.89,10.1v15.42c16.59-3.22,32.35-6.27,48.02-9.31,2.15,7.67,2.99,55.76,1.17,63.82-35.19,19.84-73.44,30.47-114.53,33.2V84.03c3.46-.36,6.59-.54,9.66-1.04,8.35-1.36,16.71-2.72,25.01-4.37,2.62-.52,5.41-1.51,6.43-5.66-1.65-1.14-3.35-2.96-5.42-3.61-3.83-1.2-7.86-2.26-11.85-2.41-16.05-.59-32.11-1.12-48.17-1.05-8.46,.04-16.94,1.11-25.35,2.18-4.11,.52-8.37,1.6-10.77,5.64,.74,3.22,3.37,4.14,5.78,4.74,5.53,1.38,11.12,2.65,16.75,3.43,7.27,1.01,14.61,1.49,21.76,2.19,1.28,6.98,.95,435.19-.29,439.26-41.42-2.08-79.76-14.93-116.41-33.29-2.12-14.12-.77-57.24,2.17-63.34,15.49,3.02,31.12,6.07,47.56,9.28v-15.46c-5.02-1.06-10.38-2.22-15.75-3.31-7.59-1.55-15.21-2.93-22.77-4.59-6.18-1.36-10.24-4.92-10.82-11.61-.32-3.67-.89-7.34-.91-11.01-.09-21.06-.05-42.12-.05-63.19,0-1.97,0-3.94,0-6.47-3.1,.19-5.38,.32-8.08,.49-.9,2.94-2.06,5.49-2.45,8.15-3.41,23.35-7.11,46.67-9.87,70.1-2.25,19.05-3.66,38.22-4.84,57.37-1.39,22.66-2.23,45.36-3.13,68.05-.34,8.49-.18,16.99-.24,25.49Z"/>
    </symbol>

    <symbol id="thunder-icon" viewBox="0 0 600 600">
        <path d="M161.84,208.89c.12,.23-.15-.16-.29-.59-3.41-10.51-10.41-18.73-17.46-26.83-7.28-8.36-15.98-15.12-25.64-20.53-10.77-6.04-21.62-11.94-32.57-17.63-7.49-3.89-15.23-7.32-22.85-10.97-2.24-1.08-4.45-2.24-7.05-3.55,.74-1.6,.99-3.31,1.89-3.77,1.27-.66,3.12-.81,4.54-.45,4.64,1.16,9.22,2.61,13.8,4.03,13.72,4.27,27.42,8.57,41.13,12.86,8.5,2.66,17.02,5.24,25.49,7.99,6.71,2.18,13.3,1.02,19.51-1.29,4.04-1.5,7.94-2,12.08-1.99,1.84,0,3.68,.05,5.52-.02,13.26-.49,25.16,3.5,36.1,10.83,8.2,5.49,16.68,10.68,23.1,18.32,6.63,7.88,12.84,16.11,19.24,24.18,.71,.89,1.48,1.73,2.58,3.01,79.03-63.91,167.63-109.38,263.39-139.37,1.62,.69,2.1,.79,2.44,1.07,.51,.44,.92,1,1.44,1.58,0,.66,.22,1.44-.04,1.99-.77,1.65-1.65,3.27-2.64,4.8-13.87,21.31-27.98,42.45-41.54,63.95-5.95,9.43-10.78,19.58-16.74,30.52,5.07-.61,9.01-1.08,12.67-1.52,2.6,2.95,1.19,4.97-.38,7.12-4.18,5.74-8.32,11.51-12.36,17.35-6.9,9.99-13.85,19.94-20.51,30.08-7.68,11.68-15.15,23.49-22.56,35.35-3.01,4.82-5.62,9.89-8.74,15.45,5.05,.82,9.87,1.5,14.65,2.39,5.58,1.03,11.16,2.07,16.67,3.41,7.96,1.94,15.91,3.94,23.74,6.3,8.27,2.48,16.53,5.07,24.56,8.23,13.41,5.28,26.72,10.84,39.88,16.72,6.04,2.7,11.65,6.36,17.38,9.73,2.68,1.58,4.89,3.61,3.07,7.59-6,1.44-11.92,3.49-18.53,3.56-6.1,.06-12.17,1.8-18.26,2.76-2.92,.46-5.86,.85-8.8,1.22-1.14,.14-2.34-.04-3.43,.25-12.36,3.31-25.05,4.72-37.62,6.86-8.94,1.52-17.69,4.15-26.55,6.15-7.34,1.66-14.75,3.04-22.09,4.69-5.98,1.35-11.9,2.93-17.85,4.37-2.22,.54-4.49,.85-6.69,1.45-9.88,2.68-19.78,5.29-29.59,8.2-3.82,1.13-7.43,2.99-11.44,4.65,4.57,9.78,8.96,19.05,13.23,28.37,5.33,11.64,10.47,23.37,15.87,34.97,3.75,8.06,7.88,15.94,11.69,23.97,5.87,12.38,11.75,24.77,17.37,37.27,5.42,12.06,10.56,24.25,15.68,36.45,.63,1.51,.36,3.4,.48,4.77-3.65,2.8-6.26,2.02-8.36-.72-13.48-17.58-29.8-32.49-45.55-47.89-8.99-8.79-18.7-16.91-28.57-24.71-13.29-10.5-26.9-20.62-40.67-30.49-10.44-7.48-21.84-13.38-33.71-18.34-18.04-7.54-35-17.17-50.77-28.55-13.74-9.92-26.24-21.31-36.36-35.31-8.66-11.98-15.55-24.54-19.87-38.67-2.96-9.66-5.18-19.3-5.35-29.51-.18-10.5,.29-20.8,2.06-31.21,1.6-9.42,1.78-19.11,2.12-28.7,.13-3.57-1.08-7.2-1.91-12.16Z"/>
    </symbol>

    <symbol id="wtl-icon" viewBox="0 0 600 600">
        <path d="M165,448.57c-21.65,.27-42.85,.93-63.14-10.67-60.73-34.7-74.77-129.52-6.05-171.6,22.59-13.83,33.67-31.69,42.63-54.64,23.85-61.06,67.94-98.39,133.71-108.29,76.08-11.45,134.89,16.14,177.23,79.5,8.89,13.31,19.46,23.75,33.69,31.01,44.55,22.75,65.83,61.69,66.9,109.35,1.12,50.19-27.2,92.52-75.69,115.86-11.7,5.63-24.98,8.37-37.81,11.16-15.89,3.46-33.18-6.84-36.83-20.71-3.48-13.24,6.39-27.44,23.6-31.72,20.54-5.11,39.39-11.98,55.71-26.85,25.27-23.02,26.65-84.45-17.55-107.48-2.75-1.43-5.52-3.39-8.46-3.79-26.93-3.65-37.69-23.93-48.25-45.24-18.99-38.29-51.51-56.94-93.17-58.97-16.74-.81-34.59,.11-50.4,5.1-46.6,14.71-74.55,48.85-79.81,96.27-3.16,28.5-14.86,40.83-40.69,47.5-24.23,6.26-34.51,21.12-35.28,43.13-.77,22.12,11.77,40.29,34.41,45.93,12.56,3.13,26.05,2.68,39.14,3.51,7.73,.49,15.59-.32,23.24,.63,13.78,1.7,23.58,11.99,24.12,24.14,.58,12.94-9.6,25.2-24.06,26.61-12.29,1.19-24.79,.25-37.2,.25Z"/>
        <path d="M278.76,405.37c-2.78-9.98,1.77-20.56,10.91-25.43,7.46-3.98,15.26-8.21,22.81-12.83,10.88-6.67,13.42-15.59,8.85-25.7-4.73-10.47-15.87-15.83-26.95-12.32-4.35,1.38-8.42,3.93-12.27,6.47-3.86,2.55-7.18,5.91-10.94,8.64-8.2,5.94-16.71,7.36-26.06,2.15-9.47-5.27-12.39-14.42-11.86-23.59,.42-7.25,3.64-15.25,7.97-21.2,17.24-23.67,53.92-34.65,81.2-25.36,34.41,11.73,51.67,36.68,53.7,70.53,2.19,36.43-27.48,70.09-58.6,76.67-21.47,4.54-33.8-.21-38.76-18.03Z"/>
        <path d="M300.93,448.22c13.68,.13,26.58,11.16,27.11,23.17,.61,13.96-13.73,28.12-28.11,27.76-13.99-.35-25.96-13.26-25.34-27.34,.58-13.07,12.48-23.73,26.34-23.59Z"/>
    </symbol>

    <symbol id="upload-icon" viewBox="0 0 600.16 600">
        <path d="M599.86,431.63c-.09,0-2.91-5.47-6.25-12.16l-87.66-175.31c-3.34-6.69-12.2-12.15-19.67-12.15l-72.66,.02c-7.47,0-13.59,6.12-13.59,13.6v23.1c0,7.48,6.12,13.6,13.59,13.6l23.1,.02c7.48,0,16.31,5.49,19.63,12.19l62.13,125.56c3.31,6.7-.09,12.18-7.57,12.18h-98.69c-7.48,0-13.6,6.11-13.6,13.59v71.12c0,7.47-6.12,13.59-13.59,13.59H214.01c-7.48,0-13.6-6.12-13.6-13.59v-71.12c0-7.47-6.12-13.59-13.59-13.59H86.14c-7.48,0-10.79-5.44-7.36-12.08l64.98-125.96c3.43-6.64,12.35-12.08,19.82-12.07h22.5c7.48,.02,13.6-6.09,13.6-13.57v-22.9c0-7.47-6.12-13.59-13.6-13.59l-72.32,.02c-7.48,0-16.34,5.47-19.7,12.15L5.96,419.6c-3.36,6.68-6.02,12.15-5.93,12.15s.18,6.12,.18,13.59v123.45c0,7.47,6.11,13.59,13.59,13.59H586.44c7.48,0,13.6-6.11,13.6-13.59v-123.56c0-7.47-.08-13.59-.17-13.59h0ZM175.54,171.66h74.6v209.4h99.91V171.66h78.6c7.48,0,9.54-4.58,4.58-10.17L309.42,21.79c-4.96-5.59-13.02-5.54-17.91,.11l-120.67,139.49c-4.89,5.66-2.78,10.28,4.7,10.28h0Zm0,0"/>
    </symbol>

    <symbol id="minimize-icon" viewBox="0 0 600.16 600">
        <path d="M562.67,211.41H37.4C16.76,211.41,.03,231.38,.03,256.01v87.91c0,24.63,16.72,44.61,37.36,44.61H562.67c20.63,0,37.36-19.97,37.36-44.61v-87.91c0-24.63-16.73-44.61-37.36-44.61Z"/>
    </symbol>

    <symbol id="close-icon" viewBox="0 0 600.16 600">
        <path d="M425.13,300l163.94-163.94c14.62-14.63,14.62-38.33,0-52.96L516.93,10.97c-14.62-14.62-38.33-14.62-52.95,0l-163.94,163.94L136.09,10.97c-14.62-14.62-38.33-14.62-52.95,0L11,83.1c-14.62,14.62-14.62,38.33,0,52.96l163.94,163.94L11,463.94c-14.62,14.63-14.62,38.33,0,52.96l72.14,72.14c14.62,14.62,38.33,14.62,52.95,0l163.94-163.94,163.94,163.94c14.62,14.62,38.33,14.62,52.95,0l72.14-72.14c14.62-14.63,14.62-38.33,0-52.96l-163.94-163.94Z"/>
    </symbol>

    <symbol id="arrow-left-icon" viewBox="0 0 600.16 600">
        <path d="M468.33,596.62c7.56,0,14.94-3.81,19.19-10.72,6.51-10.59,3.2-24.44-7.39-30.95L65.49,300.1,480.14,45.04c10.58-6.51,13.89-20.37,7.38-30.95-6.51-10.58-20.37-13.89-30.95-7.38L10.75,280.94C4.09,285.03,.03,292.29,.03,300.11s4.06,15.07,10.72,19.17l445.81,274.02c3.67,2.26,7.74,3.33,11.76,3.33Z"/>
    </symbol>

    <symbol id="arrow-right-icon" viewBox="0 0 600.16 600">
        <path d="M131.74,596.62c-7.56,0-14.94-3.81-19.19-10.72-6.51-10.59-3.2-24.44,7.39-30.95l414.64-254.86L119.93,45.04c-10.58-6.51-13.89-20.37-7.38-30.95,6.51-10.58,20.37-13.89,30.95-7.38l445.81,274.23c6.66,4.1,10.71,11.35,10.71,19.17s-4.06,15.07-10.72,19.17L143.5,593.29c-3.67,2.26-7.74,3.33-11.76,3.33Z"/>
    </symbol>

    <symbol id="rating-star-icon" viewBox="0 0 600.16 600">
        <path class="cls-1" d="M455.95,587.56c-7.19,0-14.39-1.8-22.19-6l-121.14-63.57c-3-1.8-7.19-3-11.99-3-4.2,0-8.99,1.2-11.99,2.4l-120.54,64.17c-7.19,4.2-14.39,6-22.79,6-14.39,0-28.19-6.6-37.78-17.39-9.6-10.8-13.19-25.19-10.8-39.58l23.39-134.33c1.2-8.4-1.8-16.79-7.8-22.79L15.17,279.31c-13.8-13.19-18.59-32.38-12.59-50.37,6-17.99,20.99-30.58,39.58-33.58l134.33-19.79c8.4-1.2,16.19-6.6,19.79-13.8l59.97-122.34c8.4-16.79,25.19-26.99,43.78-26.99s35.39,10.19,43.78,26.99l59.97,122.34c4.2,7.8,11.4,12.59,19.79,13.8l134.33,19.79c18.59,3,33.58,15.59,39.58,32.99,6,17.99,1.2,37.18-11.99,50.38l-96.55,94.75c-6.6,6-9,14.39-7.8,22.79l22.79,133.73c2.4,14.4-1.2,28.79-10.79,39.58-9,11.39-22.79,17.99-37.18,17.99h0Zm0,0"/>
    </symbol>
</svg>