<?xml version="1.0" encoding="utf-8"?>
<!-- Generator: Adobe Illustrator 27.0.0, SVG Export Plug-In . SVG Version: 6.00 Build 0)  -->
<svg version="1.1" id="图层_1" xmlns="http://www.w3.org/2000/svg" xmlns:xlink="http://www.w3.org/1999/xlink" x="0px" y="0px"
	 viewBox="0 0 600 600" style="enable-background:new 0 0 600 600;" xml:space="preserve">
<style type="text/css">
	.st0{display:none;}
	.st1{display:inline;fill:#141414;}
	.st2{display:inline;fill:#6768FF;}
	.st3{display:inline;fill:#34A8E0;}
	.st4{display:inline;fill:#52AC4B;}
	.st5{fill:#34A8E0;}
</style>
<g class="st0">
	<path class="st1" d="M398.12,95.53c-7.21,0-14.41,0-21.62,0c0-0.74,0-1.48,0-2.23c0.19-2.42,0.4-4.83,0.56-7.25
		c0.27-3.86,0.5-7.71,0.77-11.57c0.27-3.91,0.55-7.81,0.83-11.72c0.26-3.64,0.5-7.29,0.76-10.93c0.27-3.7,0.56-7.39,0.82-11.09
		c0.26-3.7,0.48-7.4,0.74-11.09c0.37-5.17,0.79-10.35,1.15-15.52c0.37-5.28,0.7-10.56,1.06-15.85c0.39-5.81,0.82-11.62,1.18-17.43
		c0.06-1.06,0.41-1.84,1.31-2.36c1.32-0.78,2.61-1.62,3.98-2.3c9.13-4.5,18.6-8.13,28.45-10.75c0.5-0.13,0.99-0.3,1.65-0.49
		c0-3.09,0-6.14,0-9.22c3.88-1.47,7.7-2.46,11.64-3.03c1.62-0.23,3.25-0.38,4.87-0.57c2.86,0,5.72,0,8.58,0
		c0.41,0.07,0.82,0.2,1.24,0.21c4.29,0.17,8.54,0.72,12.73,1.65c2,0.44,3.96,1.04,6.09,1.61c0,3.37,0,6.58,0,9.82
		c1.48,0.3,2.78,0.51,4.06,0.83c6.28,1.58,12.28,3.95,18.17,6.59c3.33,1.49,6.56,3.2,9.78,4.9c1,0.53,1.84,1.35,2.61,1.92
		c0.29,4.05,0.54,7.8,0.82,11.55c0.27,3.69,0.57,7.39,0.85,11.08c0.25,3.27,0.49,6.54,0.74,9.82c0.28,3.64,0.57,7.28,0.85,10.92
		c0.25,3.32,0.49,6.65,0.75,9.98c0.38,5.01,0.78,10.03,1.15,15.04c0.25,3.38,0.47,6.76,0.73,10.14c0.38,5.01,0.79,10.02,1.16,15.04
		c0.37,5.07,0.69,10.14,1.05,15.21c0.12,1.73,0.33,3.45,0.5,5.18c0,0.64,0,1.27,0,1.91c-6.89,0-13.78,0-20.67,0
		c-1.15-0.43-1.29-1.39-1.33-2.45c-0.3-7.94-0.54-15.88-0.97-23.81c-0.31-5.76-0.74-11.52-1.37-17.25
		c-0.66-5.99-1.59-11.95-2.48-17.91c-0.21-1.43-0.21-2.98-1.3-4.26c-0.69-0.06-1.41-0.13-2.32-0.21c0,0.72,0,1.29,0,1.86
		c-0.01,6.57-0.02,13.14-0.04,19.71c0,1.42-0.1,2.83-0.6,4.31c-4.62,0.98-9.21,1.94-13.73,2.9c0,1.51,0,2.84,0,4.42
		c4.76-0.92,9.28-1.8,13.77-2.67c0.62,2.2,0.86,15.99,0.33,18.3c-10.09,5.69-21.06,8.74-32.84,9.52c0-42.13,0-84.05,0-126.08
		c0.99-0.1,1.89-0.15,2.77-0.3c2.4-0.39,4.79-0.78,7.17-1.25c0.75-0.15,1.55-0.43,1.84-1.62c-0.47-0.33-0.96-0.85-1.55-1.03
		c-1.1-0.34-2.25-0.65-3.4-0.69c-4.6-0.17-9.21-0.32-13.81-0.3c-2.42,0.01-4.86,0.32-7.27,0.63c-1.18,0.15-2.4,0.46-3.09,1.62
		c0.21,0.92,0.97,1.19,1.66,1.36c1.58,0.4,3.19,0.76,4.8,0.98c2.08,0.29,4.19,0.43,6.24,0.63c0.37,2,0.27,124.8-0.08,125.97
		c-11.88-0.6-22.87-4.28-33.38-9.55c-0.61-4.05-0.22-16.41,0.62-18.16c4.44,0.87,8.92,1.74,13.64,2.66c0-1.58,0-2.92,0-4.43
		c-1.44-0.3-2.98-0.64-4.52-0.95c-2.18-0.44-4.36-0.84-6.53-1.32c-1.77-0.39-2.94-1.41-3.1-3.33c-0.09-1.05-0.26-2.11-0.26-3.16
		c-0.03-6.04-0.01-12.08-0.01-18.12c0-0.56,0-1.13,0-1.86c-0.89,0.05-1.54,0.09-2.32,0.14c-0.26,0.84-0.59,1.57-0.7,2.34
		c-0.98,6.7-2.04,13.38-2.83,20.1c-0.64,5.46-1.05,10.96-1.39,16.45c-0.4,6.5-0.64,13.01-0.9,19.52
		C398.1,90.65,398.14,93.09,398.12,95.53z"/>
</g>
<g class="st0">
	<path class="st2" d="M144.97,462.3c-4.62,0.06-9.14,0.2-13.47-2.28c-12.96-7.4-15.95-27.64-1.29-36.61
		c4.82-2.95,7.18-6.76,9.1-11.66c5.09-13.03,14.5-20.99,28.53-23.11c16.23-2.44,28.78,3.44,37.82,16.96
		c1.9,2.84,4.15,5.07,7.19,6.62c9.51,4.85,14.05,13.16,14.27,23.33c0.24,10.71-5.8,19.74-16.15,24.72c-2.5,1.2-5.33,1.79-8.07,2.38
		c-3.39,0.74-7.08-1.46-7.86-4.42c-0.74-2.83,1.36-5.86,5.04-6.77c4.38-1.09,8.4-2.56,11.89-5.73c5.39-4.91,5.69-18.02-3.74-22.93
		c-0.59-0.31-1.18-0.72-1.81-0.81c-5.75-0.78-8.04-5.11-10.3-9.65c-4.05-8.17-10.99-12.15-19.88-12.58
		c-3.57-0.17-7.38,0.02-10.75,1.09c-9.94,3.14-15.91,10.42-17.03,20.54c-0.67,6.08-3.17,8.71-8.68,10.14
		c-5.17,1.34-7.36,4.51-7.53,9.2c-0.17,4.72,2.51,8.6,7.34,9.8c2.68,0.67,5.56,0.57,8.35,0.75c1.65,0.11,3.33-0.07,4.96,0.13
		c2.94,0.36,5.03,2.56,5.15,5.15c0.12,2.76-2.05,5.38-5.13,5.68C150.29,462.5,147.62,462.3,144.97,462.3z"/>
	<path class="st2" d="M168.72,449.19c2.36-1.3,5.11-2.67,7.72-4.27c2.32-1.42,2.86-3.33,1.89-5.48c-1.01-2.23-3.39-3.38-5.75-2.63
		c-0.93,0.29-1.8,0.84-2.62,1.38c-0.82,0.54-1.53,1.26-2.33,1.84c-1.75,1.27-3.57,1.57-5.56,0.46c-2.02-1.12-2.64-3.08-2.53-5.03
		c0.09-1.55,0.78-3.25,1.7-4.52c3.68-5.05,11.51-7.39,17.33-5.41c7.34,2.5,11.02,7.83,11.46,15.05c0.47,7.77-5.86,14.96-12.5,16.36
		C171.65,458.17,168.98,456.16,168.72,449.19z"/>
	<path class="st2" d="M173.98,462.23c2.92,0.03,5.67,2.38,5.78,4.94c0.13,2.98-2.93,6-6,5.92c-2.99-0.07-5.54-2.83-5.41-5.83
		C168.48,464.47,171.02,462.2,173.98,462.23z"/>
</g>
<g class="st0">
	<path class="st3" d="M418.33,246.82c0,13.97-0.02,27.94,0.01,41.9c0.01,2.64-0.36,5.26-1.1,7.73c-1.69,5.65-5.14,10.07-10.26,13.12
		c-2.91,1.73-6.08,2.58-9.42,3.03c-2.25,0.3-4.49,0.27-6.74,0.27c-26.89,0.01-53.77,0.01-80.66,0.01c-2.63,0-5.26-0.33-7.73-1.08
		c-5.64-1.71-10.06-5.15-13.12-10.27c-1.66-2.77-2.48-5.79-2.99-8.95c-0.3-1.88-0.31-3.75-0.31-5.64c0-27.41,0.01-54.82-0.02-82.23
		c0-2.64,0.36-5.26,1.1-7.73c1.69-5.65,5.15-10.07,10.26-13.13c2.77-1.66,5.79-2.48,8.95-2.99c1.88-0.3,3.75-0.31,5.64-0.31
		c27.41,0,54.82,0.01,82.23-0.02c2.64,0,5.26,0.36,7.73,1.1c5.65,1.69,10.06,5.15,13.13,10.26c1.66,2.77,2.48,5.79,2.99,8.95
		c0.3,1.88,0.31,3.75,0.31,5.64C418.33,219.93,418.33,233.37,418.33,246.82z M317.97,228.56c0.19,1.13,0.46,1.96,0.44,2.78
		c-0.08,2.19-0.12,4.4-0.48,6.55c-0.4,2.38-0.51,4.73-0.47,7.12c0.04,2.33,0.55,4.53,1.22,6.74c0.99,3.22,2.56,6.09,4.54,8.83
		c2.31,3.2,5.16,5.8,8.3,8.06c3.6,2.6,7.47,4.8,11.59,6.52c2.71,1.13,5.31,2.48,7.69,4.19c3.14,2.25,6.25,4.56,9.28,6.96
		c2.25,1.78,4.47,3.63,6.52,5.64c3.6,3.52,7.32,6.92,10.4,10.93c0.48,0.63,1.08,0.8,1.91,0.16c-0.03-0.31,0.03-0.74-0.11-1.09
		c-1.17-2.78-2.34-5.57-3.58-8.32c-1.28-2.85-2.63-5.68-3.97-8.51c-0.87-1.83-1.81-3.63-2.67-5.47c-1.23-2.65-2.41-5.33-3.62-7.98
		c-0.98-2.13-1.98-4.25-3.02-6.48c0.92-0.38,1.74-0.8,2.61-1.06c2.24-0.66,4.5-1.26,6.76-1.87c0.5-0.14,1.02-0.21,1.53-0.33
		c1.36-0.33,2.71-0.69,4.08-1c1.68-0.38,3.37-0.69,5.04-1.07c2.02-0.46,4.02-1.06,6.06-1.4c2.87-0.49,5.77-0.81,8.59-1.57
		c0.25-0.07,0.52-0.02,0.78-0.06c0.67-0.08,1.34-0.17,2.01-0.28c1.39-0.22,2.78-0.62,4.17-0.63c1.51-0.02,2.86-0.48,4.23-0.81
		c0.42-0.91-0.09-1.37-0.7-1.73c-1.31-0.77-2.59-1.61-3.97-2.22c-3-1.34-6.04-2.61-9.1-3.82c-1.83-0.72-3.72-1.31-5.61-1.88
		c-1.79-0.54-3.6-1-5.42-1.44c-1.26-0.31-2.53-0.54-3.81-0.78c-1.09-0.2-2.19-0.36-3.35-0.55c0.71-1.27,1.31-2.43,2-3.53
		c1.69-2.71,3.4-5.4,5.15-8.07c1.52-2.31,3.11-4.59,4.68-6.87c0.92-1.33,1.87-2.65,2.82-3.96c0.36-0.49,0.68-0.95,0.09-1.63
		c-0.84,0.1-1.74,0.21-2.89,0.35c1.36-2.5,2.46-4.81,3.82-6.97c3.1-4.91,6.32-9.74,9.48-14.6c0.23-0.35,0.43-0.72,0.6-1.1
		c0.06-0.13,0.01-0.3,0.01-0.45c-0.12-0.13-0.21-0.26-0.33-0.36c-0.08-0.06-0.19-0.09-0.56-0.24
		c-21.86,6.85-42.09,17.23-60.13,31.82c-0.25-0.29-0.43-0.48-0.59-0.69c-1.46-1.84-2.88-3.72-4.39-5.52
		c-1.47-1.74-3.4-2.93-5.27-4.18c-2.5-1.67-5.21-2.58-8.24-2.47c-0.42,0.02-0.84,0.01-1.26,0c-0.94,0-1.84,0.11-2.76,0.45
		c-1.42,0.53-2.92,0.79-4.45,0.3c-1.93-0.63-3.88-1.22-5.82-1.82c-3.13-0.98-6.26-1.96-9.39-2.94c-1.04-0.32-2.09-0.65-3.15-0.92
		c-0.32-0.08-0.75-0.05-1.04,0.1c-0.2,0.11-0.26,0.5-0.43,0.86c0.59,0.3,1.1,0.57,1.61,0.81c1.74,0.83,3.51,1.62,5.22,2.51
		c2.5,1.3,4.98,2.65,7.44,4.02c2.2,1.24,4.19,2.78,5.85,4.69c1.61,1.85,3.21,3.73,3.99,6.12
		C317.93,228.52,317.99,228.61,317.97,228.56z"/>
</g>
<g class="st0">
	<path class="st4" d="M281.04,15.72c-1.39,1.19-2.86,2.29-4.15,3.57c-14.55,14.5-29.07,29.03-43.59,43.57
		c-0.68,0.68-1.26,1.46-1.98,2.3c2.24,3.23,5.42,5.35,7.59,8.25c-0.9,1.69-53.74,54.87-56.9,57.29c-3.49-2.96-6.58-6.41-9.87-9.64
		c-3.33-3.26-6.59-6.58-9.89-9.87c-3.24-3.24-6.49-6.47-9.73-9.71c-3.29-3.29-6.59-6.59-9.88-9.88c-3.28-3.28-6.56-6.56-10.07-10.07
		c-3.03,2.99-5.87,5.79-8.87,8.75c-19.18-19.29-38.1-38.32-57.19-57.52c0.72-0.79,1.29-1.47,1.92-2.1
		c15.12-15.12,30.24-30.24,45.35-45.36c0.69-0.69,1.3-1.44,2.17-2.41c-2.91-2.98-5.7-5.84-8.27-8.47
		c19.18-19.18,38.2-38.21,57.44-57.45c16.29,16.31,32.83,32.86,49.58,49.62c3.08-2.7,5.58-5.55,8.25-8.09
		c1.5-0.04,2.1,1.08,2.87,1.86c17.51,17.49,34.99,34.99,52.49,52.48c0.86,0.86,1.81,1.63,2.71,2.44
		C281.04,15.42,281.04,15.57,281.04,15.72z M149.73-15.81c-0.23,0.09-0.45,0.18-0.68,0.26c0,0.88,0,1.76,0,2.65
		c0,21.22,0,42.45,0,63.67c0,3.74-0.01,7.48,0.01,11.22c0,0.69,0.16,1.37,0.27,2.18c8.62-4.22,68.07-38.8,69.42-40.49
		C195.71,10.49,172.72-2.66,149.73-15.81z"/>
</g>
<path class="st5" d="M161.84,208.89c0.12,0.23-0.15-0.16-0.29-0.59c-3.41-10.51-10.41-18.73-17.46-26.83
	c-7.28-8.36-15.98-15.12-25.64-20.53c-10.77-6.04-21.62-11.94-32.57-17.63c-7.49-3.89-15.23-7.32-22.85-10.97
	c-2.24-1.08-4.45-2.24-7.05-3.55c0.74-1.6,0.99-3.31,1.89-3.77c1.27-0.66,3.12-0.81,4.54-0.45c4.64,1.16,9.22,2.61,13.8,4.03
	c13.72,4.27,27.42,8.57,41.13,12.86c8.5,2.66,17.02,5.24,25.49,7.99c6.71,2.18,13.3,1.02,19.51-1.29c4.04-1.5,7.94-2,12.08-1.99
	c1.84,0.01,3.68,0.05,5.52-0.02c13.26-0.49,25.16,3.5,36.1,10.83c8.2,5.49,16.68,10.68,23.1,18.32
	c6.63,7.88,12.84,16.11,19.24,24.18c0.71,0.89,1.48,1.73,2.58,3.01c79.03-63.9,167.63-109.38,263.39-139.37
	c1.62,0.69,2.1,0.79,2.44,1.07c0.51,0.44,0.92,1,1.44,1.58c0,0.66,0.22,1.44-0.04,1.99c-0.77,1.65-1.65,3.27-2.64,4.8
	c-13.87,21.31-27.98,42.45-41.54,63.95c-5.95,9.43-10.78,19.58-16.74,30.52c5.07-0.61,9.01-1.08,12.67-1.52
	c2.6,2.95,1.19,4.97-0.38,7.12c-4.18,5.74-8.32,11.51-12.36,17.35c-6.9,9.99-13.85,19.94-20.51,30.08
	c-7.68,11.68-15.15,23.49-22.56,35.35c-3.01,4.82-5.62,9.89-8.74,15.45c5.05,0.82,9.87,1.5,14.65,2.39
	c5.58,1.03,11.16,2.07,16.67,3.41c7.96,1.94,15.91,3.94,23.74,6.3c8.27,2.48,16.53,5.07,24.56,8.23
	c13.41,5.28,26.72,10.84,39.88,16.72c6.04,2.7,11.65,6.36,17.38,9.73c2.68,1.58,4.89,3.61,3.07,7.59c-6,1.44-11.92,3.49-18.53,3.56
	c-6.1,0.06-12.17,1.8-18.26,2.76c-2.92,0.46-5.86,0.85-8.8,1.22c-1.14,0.14-2.34-0.04-3.43,0.25c-12.36,3.31-25.05,4.72-37.62,6.86
	c-8.94,1.52-17.69,4.15-26.55,6.15c-7.34,1.66-14.75,3.04-22.09,4.69c-5.98,1.35-11.9,2.93-17.85,4.37
	c-2.22,0.54-4.49,0.85-6.69,1.45c-9.88,2.68-19.78,5.29-29.59,8.2c-3.82,1.13-7.43,2.99-11.44,4.65
	c4.57,9.78,8.96,19.05,13.23,28.37c5.33,11.64,10.47,23.37,15.87,34.97c3.75,8.06,7.88,15.94,11.69,23.97
	c5.87,12.38,11.75,24.77,17.37,37.27c5.42,12.06,10.56,24.25,15.68,36.45c0.63,1.51,0.36,3.4,0.48,4.77
	c-3.65,2.8-6.26,2.02-8.36-0.72c-13.48-17.58-29.8-32.49-45.55-47.89c-8.99-8.79-18.7-16.91-28.57-24.71
	c-13.29-10.5-26.9-20.62-40.67-30.49c-10.44-7.48-21.84-13.38-33.71-18.34c-18.04-7.54-35-17.17-50.77-28.55
	c-13.74-9.92-26.24-21.31-36.36-35.31c-8.66-11.98-15.55-24.54-19.87-38.67c-2.96-9.66-5.18-19.3-5.35-29.51
	c-0.18-10.5,0.29-20.8,2.06-31.21c1.6-9.42,1.78-19.11,2.12-28.7C163.87,217.47,162.67,213.85,161.84,208.89z"/>
</svg>
