<?xml version="1.0" encoding="UTF-8"?>
<svg id="_图层_1" data-name="图层 1" xmlns="http://www.w3.org/2000/svg" viewBox="0 0 600 600">
  <defs>
    <style>
      .cls-1 {
        fill: #34a8e0;
      }
    </style>
  </defs>
  <path class="cls-1" d="M161.84,208.89c.12,.23-.15-.16-.29-.59-3.41-10.51-10.41-18.73-17.46-26.83-7.28-8.36-15.98-15.12-25.64-20.53-10.77-6.04-21.62-11.94-32.57-17.63-7.49-3.89-15.23-7.32-22.85-10.97-2.24-1.08-4.45-2.24-7.05-3.55,.74-1.6,.99-3.31,1.89-3.77,1.27-.66,3.12-.81,4.54-.45,4.64,1.16,9.22,2.61,13.8,4.03,13.72,4.27,27.42,8.57,41.13,12.86,8.5,2.66,17.02,5.24,25.49,7.99,6.71,2.18,13.3,1.02,19.51-1.29,4.04-1.5,7.94-2,12.08-1.99,1.84,0,3.68,.05,5.52-.02,13.26-.49,25.16,3.5,36.1,10.83,8.2,5.49,16.68,10.68,23.1,18.32,6.63,7.88,12.84,16.11,19.24,24.18,.71,.89,1.48,1.73,2.58,3.01,79.03-63.91,167.63-109.38,263.39-139.37,1.62,.69,2.1,.79,2.44,1.07,.51,.44,.92,1,1.44,1.58,0,.66,.22,1.44-.04,1.99-.77,1.65-1.65,3.27-2.64,4.8-13.87,21.31-27.98,42.45-41.54,63.95-5.95,9.43-10.78,19.58-16.74,30.52,5.07-.61,9.01-1.08,12.67-1.52,2.6,2.95,1.19,4.97-.38,7.12-4.18,5.74-8.32,11.51-12.36,17.35-6.9,9.99-13.85,19.94-20.51,30.08-7.68,11.68-15.15,23.49-22.56,35.35-3.01,4.82-5.62,9.89-8.74,15.45,5.05,.82,9.87,1.5,14.65,2.39,5.58,1.03,11.16,2.07,16.67,3.41,7.96,1.94,15.91,3.94,23.74,6.3,8.27,2.48,16.53,5.07,24.56,8.23,13.41,5.28,26.72,10.84,39.88,16.72,6.04,2.7,11.65,6.36,17.38,9.73,2.68,1.58,4.89,3.61,3.07,7.59-6,1.44-11.92,3.49-18.53,3.56-6.1,.06-12.17,1.8-18.26,2.76-2.92,.46-5.86,.85-8.8,1.22-1.14,.14-2.34-.04-3.43,.25-12.36,3.31-25.05,4.72-37.62,6.86-8.94,1.52-17.69,4.15-26.55,6.15-7.34,1.66-14.75,3.04-22.09,4.69-5.98,1.35-11.9,2.93-17.85,4.37-2.22,.54-4.49,.85-6.69,1.45-9.88,2.68-19.78,5.29-29.59,8.2-3.82,1.13-7.43,2.99-11.44,4.65,4.57,9.78,8.96,19.05,13.23,28.37,5.33,11.64,10.47,23.37,15.87,34.97,3.75,8.06,7.88,15.94,11.69,23.97,5.87,12.38,11.75,24.77,17.37,37.27,5.42,12.06,10.56,24.25,15.68,36.45,.63,1.51,.36,3.4,.48,4.77-3.65,2.8-6.26,2.02-8.36-.72-13.48-17.58-29.8-32.49-45.55-47.89-8.99-8.79-18.7-16.91-28.57-24.71-13.29-10.5-26.9-20.62-40.67-30.49-10.44-7.48-21.84-13.38-33.71-18.34-18.04-7.54-35-17.17-50.77-28.55-13.74-9.92-26.24-21.31-36.36-35.31-8.66-11.98-15.55-24.54-19.87-38.67-2.96-9.66-5.18-19.3-5.35-29.51-.18-10.5,.29-20.8,2.06-31.21,1.6-9.42,1.78-19.11,2.12-28.7,.13-3.57-1.08-7.2-1.91-12.16Z"/>
</svg>