<?xml version="1.0" encoding="UTF-8"?>
<svg id="_图层_1" data-name="图层 1" xmlns="http://www.w3.org/2000/svg" viewBox="0 0 600.16 600">
  <defs>
    <style>
      .cls-1 {
        fill: #272636;
      }
    </style>
  </defs>
  <path class="cls-1" d="M599.86,431.63c-.09,0-2.91-5.47-6.25-12.16l-87.66-175.31c-3.34-6.69-12.2-12.15-19.67-12.15l-72.66,.02c-7.47,0-13.59,6.12-13.59,13.6v23.1c0,7.48,6.12,13.6,13.59,13.6l23.1,.02c7.48,0,16.31,5.49,19.63,12.19l62.13,125.56c3.31,6.7-.09,12.18-7.57,12.18h-98.69c-7.48,0-13.6,6.11-13.6,13.59v71.12c0,7.47-6.12,13.59-13.59,13.59H214.01c-7.48,0-13.6-6.12-13.6-13.59v-71.12c0-7.47-6.12-13.59-13.59-13.59H86.14c-7.48,0-10.79-5.44-7.36-12.08l64.98-125.96c3.43-6.64,12.35-12.08,19.82-12.07h22.5c7.48,.02,13.6-6.09,13.6-13.57v-22.9c0-7.47-6.12-13.59-13.6-13.59l-72.32,.02c-7.48,0-16.34,5.47-19.7,12.15L5.96,419.6c-3.36,6.68-6.02,12.15-5.93,12.15s.18,6.12,.18,13.59v123.45c0,7.47,6.11,13.59,13.59,13.59H586.44c7.48,0,13.6-6.11,13.6-13.59v-123.56c0-7.47-.08-13.59-.17-13.59h0ZM175.54,171.66h74.6v209.4h99.91V171.66h78.6c7.48,0,9.54-4.58,4.58-10.17L309.42,21.79c-4.96-5.59-13.02-5.54-17.91,.11l-120.67,139.49c-4.89,5.66-2.78,10.28,4.7,10.28h0Zm0,0"/>
</svg>