<?xml version="1.0" encoding="utf-8"?>
<!-- Generator: Adobe Illustrator 27.0.0, SVG Export Plug-In . SVG Version: 6.00 Build 0)  -->
<svg version="1.1" id="图层_1" xmlns="http://www.w3.org/2000/svg" xmlns:xlink="http://www.w3.org/1999/xlink" x="0px" y="0px"
	 viewBox="0 0 600 600" style="enable-background:new 0 0 600 600;" xml:space="preserve">
<style type="text/css">
	.st0{display:none;}
	.st1{display:inline;fill:#141414;}
	.st2{fill:#6768FF;}
	.st3{display:inline;fill:#34A8E0;}
	.st4{display:inline;fill:#52AC4B;}
	.st5{display:none;fill:#34A8E0;}
</style>
<g class="st0">
	<path class="st1" d="M145.9,550c-25.13,0-50.26,0-75.39,0c0-2.59,0-5.17,0-7.76c0.66-8.42,1.38-16.84,1.96-25.27
		c0.94-13.44,1.76-26.9,2.68-40.34c0.93-13.63,1.93-27.25,2.88-40.88c0.89-12.71,1.73-25.42,2.64-38.12
		c0.93-12.89,1.96-25.77,2.87-38.66c0.91-12.89,1.67-25.79,2.6-38.68c1.3-18.04,2.74-36.08,4.02-54.12
		c1.3-18.41,2.44-36.84,3.69-55.26c1.37-20.26,2.87-40.51,4.11-60.78c0.23-3.7,1.43-6.4,4.56-8.24c4.61-2.71,9.1-5.67,13.89-8.02
		c31.85-15.69,64.86-28.36,99.2-37.47c1.75-0.46,3.47-1.03,5.76-1.72c0-10.78,0-21.42,0-32.14c13.52-5.13,26.86-8.58,40.58-10.55
		c5.64-0.81,11.33-1.34,16.99-2c9.98,0,19.96,0,29.93,0c1.44,0.26,2.87,0.69,4.32,0.75c14.97,0.59,29.78,2.51,44.39,5.74
		c6.97,1.54,13.82,3.63,21.25,5.61c0,11.74,0,22.93,0,34.24c5.16,1.04,9.7,1.78,14.15,2.89c21.9,5.5,42.81,13.79,63.36,22.97
		c11.6,5.19,22.87,11.16,34.12,17.09c3.48,1.84,6.43,4.71,9.09,6.71c1,14.13,1.89,27.21,2.85,40.27
		c0.95,12.88,1.97,25.76,2.95,38.64c0.87,11.41,1.71,22.82,2.58,34.23c0.97,12.7,1.99,25.39,2.96,38.09
		c0.89,11.59,1.72,23.19,2.6,34.79c1.33,17.48,2.71,34.96,4.02,52.45c0.89,11.78,1.65,23.57,2.54,35.35
		c1.32,17.48,2.77,34.96,4.04,52.45c1.29,17.67,2.39,35.36,3.66,53.03c0.43,6.03,1.15,12.04,1.73,18.07c0,2.22,0,4.43,0,6.65
		c-24.02,0-48.04,0-72.06,0c-4-1.51-4.51-4.86-4.65-8.54c-1.06-27.68-1.88-55.38-3.37-83.04c-1.08-20.08-2.58-40.17-4.78-60.15
		c-2.3-20.89-5.53-41.68-8.65-62.46c-0.75-4.98-0.72-10.39-4.53-14.85c-2.41-0.22-4.92-0.45-8.07-0.74c0,2.51,0,4.49,0,6.47
		c-0.04,22.91-0.06,45.82-0.12,68.73c-0.01,4.96-0.35,9.88-2.09,15.04c-16.12,3.4-32.12,6.77-47.89,10.1c0,5.25,0,9.92,0,15.42
		c16.59-3.22,32.35-6.27,48.02-9.31c2.15,7.67,2.99,55.76,1.17,63.82c-35.19,19.84-73.44,30.47-114.53,33.2
		c0-146.92,0-293.11,0-439.67c3.46-0.36,6.59-0.54,9.66-1.04c8.35-1.36,16.71-2.72,25.01-4.37c2.62-0.52,5.41-1.51,6.43-5.66
		c-1.65-1.14-3.35-2.96-5.42-3.61c-3.83-1.2-7.86-2.26-11.85-2.41c-16.05-0.59-32.11-1.12-48.17-1.05
		c-8.46,0.04-16.94,1.11-25.35,2.18c-4.11,0.52-8.37,1.6-10.77,5.64c0.74,3.22,3.37,4.14,5.78,4.74c5.53,1.38,11.12,2.65,16.75,3.43
		c7.27,1.01,14.61,1.49,21.76,2.19c1.28,6.98,0.95,435.19-0.29,439.26c-41.42-2.08-79.76-14.93-116.41-33.29
		c-2.12-14.12-0.77-57.24,2.17-63.34c15.49,3.02,31.12,6.07,47.56,9.28c0-5.53,0-10.18,0-15.46c-5.02-1.06-10.38-2.22-15.75-3.31
		c-7.59-1.55-15.21-2.93-22.77-4.59c-6.18-1.36-10.24-4.92-10.82-11.61c-0.32-3.67-0.89-7.34-0.91-11.01
		c-0.09-21.06-0.05-42.12-0.05-63.19c0-1.97,0-3.94,0-6.47c-3.1,0.19-5.38,0.32-8.08,0.49c-0.9,2.94-2.06,5.49-2.45,8.15
		c-3.41,23.35-7.11,46.67-9.87,70.1c-2.25,19.05-3.66,38.22-4.84,57.37c-1.39,22.66-2.23,45.36-3.13,68.05
		C145.8,533,145.96,541.5,145.9,550z"/>
</g>
<g>
	<path class="st2" d="M165,448.57c-21.65,0.27-42.85,0.93-63.14-10.67c-60.73-34.7-74.77-129.52-6.05-171.6
		c22.59-13.83,33.67-31.69,42.63-54.64c23.85-61.06,67.94-98.39,133.71-108.29c76.08-11.45,134.89,16.14,177.23,79.5
		c8.89,13.31,19.46,23.75,33.69,31.01c44.55,22.75,65.83,61.69,66.9,109.35c1.12,50.19-27.2,92.52-75.69,115.86
		c-11.7,5.63-24.98,8.37-37.81,11.16c-15.89,3.46-33.18-6.84-36.83-20.71c-3.48-13.24,6.39-27.44,23.6-31.72
		c20.54-5.11,39.39-11.98,55.71-26.85c25.27-23.02,26.65-84.45-17.55-107.48c-2.75-1.43-5.52-3.39-8.46-3.79
		c-26.93-3.65-37.69-23.93-48.25-45.24c-18.99-38.29-51.51-56.94-93.17-58.97c-16.74-0.81-34.59,0.11-50.4,5.1
		c-46.6,14.71-74.55,48.85-79.81,96.27c-3.16,28.5-14.86,40.83-40.69,47.5c-24.23,6.26-34.51,21.12-35.28,43.13
		c-0.77,22.12,11.77,40.29,34.41,45.93c12.56,3.13,26.05,2.68,39.14,3.51c7.73,0.49,15.59-0.32,23.24,0.63
		c13.78,1.7,23.58,11.99,24.12,24.14c0.58,12.94-9.6,25.2-24.06,26.61C189.91,449.51,177.41,448.57,165,448.57z"/>
	<path class="st2" d="M278.76,405.37c-2.78-9.98,1.77-20.56,10.91-25.43c7.46-3.98,15.26-8.21,22.81-12.83
		c10.88-6.67,13.42-15.59,8.85-25.7c-4.73-10.47-15.87-15.83-26.95-12.32c-4.35,1.38-8.42,3.93-12.27,6.47
		c-3.86,2.55-7.18,5.91-10.94,8.64c-8.2,5.94-16.71,7.36-26.06,2.15c-9.47-5.27-12.39-14.42-11.86-23.59
		c0.42-7.25,3.64-15.25,7.97-21.2c17.24-23.67,53.92-34.65,81.2-25.36c34.41,11.73,51.67,36.68,53.7,70.53
		c2.19,36.43-27.48,70.09-58.6,76.67C296.05,427.94,283.72,423.19,278.76,405.37z"/>
	<path class="st2" d="M300.93,448.22c13.68,0.13,26.58,11.16,27.11,23.17c0.61,13.96-13.73,28.12-28.11,27.76
		c-13.99-0.35-25.96-13.26-25.34-27.34C275.17,458.74,287.06,448.09,300.93,448.22z"/>
</g>
<g class="st0">
	<path class="st3" d="M418.33,246.82c0,13.97-0.02,27.94,0.01,41.9c0.01,2.64-0.36,5.26-1.1,7.73c-1.69,5.65-5.14,10.07-10.26,13.12
		c-2.91,1.73-6.08,2.58-9.42,3.03c-2.25,0.3-4.49,0.27-6.74,0.27c-26.89,0.01-53.77,0.01-80.66,0.01c-2.63,0-5.26-0.33-7.73-1.08
		c-5.64-1.71-10.06-5.15-13.12-10.27c-1.66-2.77-2.48-5.79-2.99-8.95c-0.3-1.88-0.31-3.75-0.31-5.64c0-27.41,0.01-54.82-0.02-82.23
		c0-2.64,0.36-5.26,1.1-7.73c1.69-5.65,5.15-10.07,10.26-13.13c2.77-1.66,5.79-2.48,8.95-2.99c1.88-0.3,3.75-0.31,5.64-0.31
		c27.41,0,54.82,0.01,82.23-0.02c2.64,0,5.26,0.36,7.73,1.1c5.65,1.69,10.06,5.15,13.13,10.26c1.66,2.77,2.48,5.79,2.99,8.95
		c0.3,1.88,0.31,3.75,0.31,5.64C418.33,219.93,418.33,233.37,418.33,246.82z M317.97,228.56c0.19,1.13,0.46,1.96,0.44,2.78
		c-0.08,2.19-0.12,4.4-0.48,6.55c-0.4,2.38-0.51,4.73-0.47,7.12c0.04,2.33,0.55,4.53,1.22,6.74c0.99,3.22,2.56,6.09,4.54,8.83
		c2.31,3.2,5.16,5.8,8.3,8.06c3.6,2.6,7.47,4.8,11.59,6.52c2.71,1.13,5.31,2.48,7.69,4.19c3.14,2.25,6.25,4.56,9.28,6.96
		c2.25,1.78,4.47,3.63,6.52,5.64c3.6,3.52,7.32,6.92,10.4,10.93c0.48,0.63,1.08,0.8,1.91,0.16c-0.03-0.31,0.03-0.74-0.11-1.09
		c-1.17-2.78-2.34-5.57-3.58-8.32c-1.28-2.85-2.63-5.68-3.97-8.51c-0.87-1.83-1.81-3.63-2.67-5.47c-1.23-2.65-2.41-5.33-3.62-7.98
		c-0.98-2.13-1.98-4.25-3.02-6.48c0.92-0.38,1.74-0.8,2.61-1.06c2.24-0.66,4.5-1.26,6.76-1.87c0.5-0.14,1.02-0.21,1.53-0.33
		c1.36-0.33,2.71-0.69,4.08-1c1.68-0.38,3.37-0.69,5.04-1.07c2.02-0.46,4.02-1.06,6.06-1.4c2.87-0.49,5.77-0.81,8.59-1.57
		c0.25-0.07,0.52-0.02,0.78-0.06c0.67-0.08,1.34-0.17,2.01-0.28c1.39-0.22,2.78-0.62,4.17-0.63c1.51-0.02,2.86-0.48,4.23-0.81
		c0.42-0.91-0.09-1.37-0.7-1.73c-1.31-0.77-2.59-1.61-3.97-2.22c-3-1.34-6.04-2.61-9.1-3.82c-1.83-0.72-3.72-1.31-5.61-1.88
		c-1.79-0.54-3.6-1-5.42-1.44c-1.26-0.31-2.53-0.54-3.81-0.78c-1.09-0.2-2.19-0.36-3.35-0.55c0.71-1.27,1.31-2.43,2-3.53
		c1.69-2.71,3.4-5.4,5.15-8.07c1.52-2.31,3.11-4.59,4.68-6.87c0.92-1.33,1.87-2.65,2.82-3.96c0.36-0.49,0.68-0.95,0.09-1.63
		c-0.84,0.1-1.74,0.21-2.89,0.35c1.36-2.5,2.46-4.81,3.82-6.97c3.1-4.91,6.32-9.74,9.48-14.6c0.23-0.35,0.43-0.72,0.6-1.1
		c0.06-0.13,0.01-0.3,0.01-0.45c-0.12-0.13-0.21-0.26-0.33-0.36c-0.08-0.06-0.19-0.09-0.56-0.24
		c-21.86,6.85-42.09,17.23-60.13,31.82c-0.25-0.29-0.43-0.48-0.59-0.69c-1.46-1.84-2.88-3.72-4.39-5.52
		c-1.47-1.74-3.4-2.93-5.27-4.18c-2.5-1.67-5.21-2.58-8.24-2.47c-0.42,0.02-0.84,0.01-1.26,0c-0.94,0-1.84,0.11-2.76,0.45
		c-1.42,0.53-2.92,0.79-4.45,0.3c-1.93-0.63-3.88-1.22-5.82-1.82c-3.13-0.98-6.26-1.96-9.39-2.94c-1.04-0.32-2.09-0.65-3.15-0.92
		c-0.32-0.08-0.75-0.05-1.04,0.1c-0.2,0.11-0.26,0.5-0.43,0.86c0.59,0.3,1.1,0.57,1.61,0.81c1.74,0.83,3.51,1.62,5.22,2.51
		c2.5,1.3,4.98,2.65,7.44,4.02c2.2,1.24,4.19,2.78,5.85,4.69c1.61,1.85,3.21,3.73,3.99,6.12
		C317.93,228.52,317.99,228.61,317.97,228.56z"/>
</g>
<g class="st0">
	<path class="st4" d="M550,281.1c-3.23,2.76-6.67,5.33-9.67,8.32c-33.91,33.8-67.75,67.67-101.59,101.54
		c-1.58,1.58-2.94,3.39-4.62,5.36c5.22,7.53,12.64,12.47,17.7,19.23c-2.09,3.94-125.25,127.88-132.61,133.52
		c-8.14-6.89-15.33-14.95-23.01-22.47c-7.76-7.6-15.37-15.34-23.05-23.02c-7.55-7.55-15.12-15.09-22.67-22.64
		c-7.68-7.67-15.35-15.36-23.03-23.03c-7.64-7.64-15.29-15.28-23.48-23.47c-7.06,6.96-13.68,13.5-20.68,20.4
		C138.6,409.9,94.49,365.54,50,320.79c1.67-1.84,3.01-3.43,4.47-4.9c35.23-35.25,70.48-70.47,105.71-105.72
		c1.6-1.6,3.04-3.36,5.05-5.61c-6.78-6.95-13.29-13.62-19.26-19.74c44.7-44.71,89.04-89.06,133.88-133.91
		c37.98,38.01,76.51,76.58,115.56,115.65c7.17-6.3,13.01-12.95,19.23-18.86c3.5-0.1,4.89,2.52,6.7,4.32
		c40.8,40.75,81.55,81.55,122.34,122.32c2,2,4.21,3.79,6.32,5.68C550,280.39,550,280.75,550,281.1z M243.94,207.59
		c-0.53,0.2-1.06,0.41-1.59,0.61c0,2.06,0,4.11,0,6.17c0,49.47,0,98.93,0,148.4c0,8.72-0.03,17.44,0.02,26.16
		c0.01,1.6,0.38,3.2,0.62,5.07c20.1-9.84,158.65-90.42,161.81-94.37C351.11,268.91,297.53,238.25,243.94,207.59z"/>
</g>
<path class="st5" d="M161.84,208.89c0.12,0.23-0.15-0.16-0.29-0.59c-3.41-10.51-10.41-18.73-17.46-26.83
	c-7.28-8.36-15.98-15.12-25.64-20.53c-10.77-6.04-21.62-11.94-32.57-17.63c-7.49-3.89-15.23-7.32-22.85-10.97
	c-2.24-1.08-4.45-2.24-7.05-3.55c0.74-1.6,0.99-3.31,1.89-3.77c1.27-0.66,3.12-0.81,4.54-0.45c4.64,1.16,9.22,2.61,13.8,4.03
	c13.72,4.27,27.42,8.57,41.13,12.86c8.5,2.66,17.02,5.24,25.49,7.99c6.71,2.18,13.3,1.02,19.51-1.29c4.04-1.5,7.94-2,12.08-1.99
	c1.84,0.01,3.68,0.05,5.52-0.02c13.26-0.49,25.16,3.5,36.1,10.83c8.2,5.49,16.68,10.68,23.1,18.32
	c6.63,7.88,12.84,16.11,19.24,24.18c0.71,0.89,1.48,1.73,2.58,3.01c79.03-63.9,167.63-109.38,263.39-139.37
	c1.62,0.69,2.1,0.79,2.44,1.07c0.51,0.44,0.92,1,1.44,1.58c0,0.66,0.22,1.44-0.04,1.99c-0.77,1.65-1.65,3.27-2.64,4.8
	c-13.87,21.31-27.98,42.45-41.54,63.95c-5.95,9.43-10.78,19.58-16.74,30.52c5.07-0.61,9.01-1.08,12.67-1.52
	c2.6,2.95,1.19,4.97-0.38,7.12c-4.18,5.74-8.32,11.51-12.36,17.35c-6.9,9.99-13.85,19.94-20.51,30.08
	c-7.68,11.68-15.15,23.49-22.56,35.35c-3.01,4.82-5.62,9.89-8.74,15.45c5.05,0.82,9.87,1.5,14.65,2.39
	c5.58,1.03,11.16,2.07,16.67,3.41c7.96,1.94,15.91,3.94,23.74,6.3c8.27,2.48,16.53,5.07,24.56,8.23
	c13.41,5.28,26.72,10.84,39.88,16.72c6.04,2.7,11.65,6.36,17.38,9.73c2.68,1.58,4.89,3.61,3.07,7.59c-6,1.44-11.92,3.49-18.53,3.56
	c-6.1,0.06-12.17,1.8-18.26,2.76c-2.92,0.46-5.86,0.85-8.8,1.22c-1.14,0.14-2.34-0.04-3.43,0.25c-12.36,3.31-25.05,4.72-37.62,6.86
	c-8.94,1.52-17.69,4.15-26.55,6.15c-7.34,1.66-14.75,3.04-22.09,4.69c-5.98,1.35-11.9,2.93-17.85,4.37
	c-2.22,0.54-4.49,0.85-6.69,1.45c-9.88,2.68-19.78,5.29-29.59,8.2c-3.82,1.13-7.43,2.99-11.44,4.65
	c4.57,9.78,8.96,19.05,13.23,28.37c5.33,11.64,10.47,23.37,15.87,34.97c3.75,8.06,7.88,15.94,11.69,23.97
	c5.87,12.38,11.75,24.77,17.37,37.27c5.42,12.06,10.56,24.25,15.68,36.45c0.63,1.51,0.36,3.4,0.48,4.77
	c-3.65,2.8-6.26,2.02-8.36-0.72c-13.48-17.58-29.8-32.49-45.55-47.89c-8.99-8.79-18.7-16.91-28.57-24.71
	c-13.29-10.5-26.9-20.62-40.67-30.49c-10.44-7.48-21.84-13.38-33.71-18.34c-18.04-7.54-35-17.17-50.77-28.55
	c-13.74-9.92-26.24-21.31-36.36-35.31c-8.66-11.98-15.55-24.54-19.87-38.67c-2.96-9.66-5.18-19.3-5.35-29.51
	c-0.18-10.5,0.29-20.8,2.06-31.21c1.6-9.42,1.78-19.11,2.12-28.7C163.87,217.47,162.67,213.85,161.84,208.89z"/>
</svg>
