<?xml version="1.0" encoding="UTF-8"?>
<svg id="_图层_1" data-name="图层 1" xmlns="http://www.w3.org/2000/svg" viewBox="0 0 600 600">
  <defs>
    <style>
      .cls-1 {
        fill: #6768ff;
      }
    </style>
  </defs>
  <path class="cls-1" d="M165,448.57c-21.65,.27-42.85,.93-63.14-10.67-60.73-34.7-74.77-129.52-6.05-171.6,22.59-13.83,33.67-31.69,42.63-54.64,23.85-61.06,67.94-98.39,133.71-108.29,76.08-11.45,134.89,16.14,177.23,79.5,8.89,13.31,19.46,23.75,33.69,31.01,44.55,22.75,65.83,61.69,66.9,109.35,1.12,50.19-27.2,92.52-75.69,115.86-11.7,5.63-24.98,8.37-37.81,11.16-15.89,3.46-33.18-6.84-36.83-20.71-3.48-13.24,6.39-27.44,23.6-31.72,20.54-5.11,39.39-11.98,55.71-26.85,25.27-23.02,26.65-84.45-17.55-107.48-2.75-1.43-5.52-3.39-8.46-3.79-26.93-3.65-37.69-23.93-48.25-45.24-18.99-38.29-51.51-56.94-93.17-58.97-16.74-.81-34.59,.11-50.4,5.1-46.6,14.71-74.55,48.85-79.81,96.27-3.16,28.5-14.86,40.83-40.69,47.5-24.23,6.26-34.51,21.12-35.28,43.13-.77,22.12,11.77,40.29,34.41,45.93,12.56,3.13,26.05,2.68,39.14,3.51,7.73,.49,15.59-.32,23.24,.63,13.78,1.7,23.58,11.99,24.12,24.14,.58,12.94-9.6,25.2-24.06,26.61-12.29,1.19-24.79,.25-37.2,.25Z"/>
  <path class="cls-1" d="M278.76,405.37c-2.78-9.98,1.77-20.56,10.91-25.43,7.46-3.98,15.26-8.21,22.81-12.83,10.88-6.67,13.42-15.59,8.85-25.7-4.73-10.47-15.87-15.83-26.95-12.32-4.35,1.38-8.42,3.93-12.27,6.47-3.86,2.55-7.18,5.91-10.94,8.64-8.2,5.94-16.71,7.36-26.06,2.15-9.47-5.27-12.39-14.42-11.86-23.59,.42-7.25,3.64-15.25,7.97-21.2,17.24-23.67,53.92-34.65,81.2-25.36,34.41,11.73,51.67,36.68,53.7,70.53,2.19,36.43-27.48,70.09-58.6,76.67-21.47,4.54-33.8-.21-38.76-18.03Z"/>
  <path class="cls-1" d="M300.93,448.22c13.68,.13,26.58,11.16,27.11,23.17,.61,13.96-13.73,28.12-28.11,27.76-13.99-.35-25.96-13.26-25.34-27.34,.58-13.07,12.48-23.73,26.34-23.59Z"/>
</svg>